<svg width="212" height="82" viewBox="0 0 212 82" fill="none" xmlns="http://www.w3.org/2000/svg">
<path d="M0.772569 79.3962C0.715239 79.5218 0.770599 79.6701 0.896218 79.7274L2.94316 80.6615C3.06876 80.7188 3.21706 80.6635 3.27438 80.5379C3.33171 80.4123 3.27635 80.264 3.15073 80.2067L1.33122 79.3763L2.16153 77.5568C2.21886 77.4312 2.1635 77.2829 2.03788 77.2256C1.91227 77.1683 1.76398 77.2237 1.70666 77.3493L0.772569 79.3962ZM211.194 0.765788L210.727 0.940232L210.901 1.40866L211.369 1.23421L211.194 0.765788ZM208.857 1.63801L207.923 1.9869L208.098 2.45532L209.032 2.10643L208.857 1.63801ZM206.054 2.68468L205.119 3.03357L205.294 3.50199L206.228 3.1531L206.054 2.68468ZM203.25 3.73134L202.315 4.08023L202.49 4.54866L203.425 4.19977L203.25 3.73134ZM200.446 4.77801L199.512 5.1269L199.686 5.59532L200.621 5.24643L200.446 4.77801ZM197.642 5.82468L196.708 6.17357L196.883 6.64199L197.817 6.2931L197.642 5.82468ZM194.839 6.87134L193.904 7.22023L194.079 7.68866L195.013 7.33977L194.839 6.87134ZM192.035 7.91801L191.1 8.2669L191.275 8.73532L192.21 8.38643L192.035 7.91801ZM189.231 8.96468L188.297 9.31356L188.471 9.78199L189.406 9.4331L189.231 8.96468ZM186.427 10.0113L185.493 10.3602L185.668 10.8287L186.602 10.4798L186.427 10.0113ZM183.624 11.058L182.689 11.4069L182.864 11.8753L183.798 11.5264L183.624 11.058ZM180.82 12.1047L179.885 12.4536L180.06 12.922L180.995 12.5731L180.82 12.1047ZM178.016 13.1513L177.082 13.5002L177.256 13.9687L178.191 13.6198L178.016 13.1513ZM175.212 14.198L174.278 14.5469L174.453 15.0153L175.387 14.6664L175.212 14.198ZM172.409 15.2447L171.474 15.5936L171.649 16.062L172.583 15.7131L172.409 15.2447ZM169.605 16.2913L168.67 16.6402L168.845 17.1087L169.78 16.7598L169.605 16.2913ZM166.801 17.338L165.867 17.6869L166.041 18.1553L166.976 17.8064L166.801 17.338ZM163.997 18.3847L163.063 18.7336L163.238 19.202L164.172 18.8531L163.997 18.3847ZM161.194 19.4313L160.259 19.7802L160.434 20.2487L161.368 19.8998L161.194 19.4313ZM158.39 20.478L157.455 20.8269L157.63 21.2953L158.565 20.9464L158.39 20.478ZM155.586 21.5247L154.652 21.8736L154.826 22.342L155.761 21.9931L155.586 21.5247ZM152.782 22.5713L151.848 22.9202L152.023 23.3887L152.957 23.0398L152.782 22.5713ZM149.979 23.618L149.044 23.9669L149.219 24.4353L150.153 24.0864L149.979 23.618ZM147.175 24.6647L146.24 25.0136L146.415 25.482L147.35 25.1331L147.175 24.6647ZM144.371 25.7113L143.437 26.0602L143.611 26.5287L144.546 26.1798L144.371 25.7113ZM141.567 26.758L140.633 27.1069L140.808 27.5753L141.742 27.2264L141.567 26.758ZM138.764 27.8047L137.829 28.1536L138.004 28.622L138.938 28.2731L138.764 27.8047ZM135.96 28.8513L135.025 29.2002L135.2 29.6687L136.135 29.3198L135.96 28.8513ZM133.156 29.898L132.222 30.2469L132.396 30.7153L133.331 30.3664L133.156 29.898ZM130.352 30.9447L129.418 31.2936L129.593 31.762L130.527 31.4131L130.352 30.9447ZM127.549 31.9913L126.614 32.3402L126.789 32.8086L127.723 32.4598L127.549 31.9913ZM124.745 33.038L123.81 33.3869L123.985 33.8553L124.92 33.5064L124.745 33.038ZM121.941 34.0847L121.007 34.4336L121.181 34.902L122.116 34.5531L121.941 34.0847ZM119.137 35.1313L118.203 35.4802L118.378 35.9486L119.312 35.5998L119.137 35.1313ZM116.334 36.178L115.399 36.5269L115.574 36.9953L116.508 36.6464L116.334 36.178ZM113.53 37.2247L112.595 37.5736L112.77 38.042L113.705 37.6931L113.53 37.2247ZM110.726 38.2713L109.792 38.6202L109.966 39.0886L110.901 38.7398L110.726 38.2713ZM107.922 39.318L106.988 39.6669L107.163 40.1353L108.097 39.7864L107.922 39.318ZM105.119 40.3647L104.184 40.7136L104.359 41.182L105.293 40.8331L105.119 40.3647ZM102.315 41.4113L101.38 41.7602L101.555 42.2286L102.49 41.8798L102.315 41.4113ZM99.5111 42.458L98.5766 42.8069L98.7514 43.2753L99.686 42.9264L99.5111 42.458ZM96.7074 43.5047L95.7728 43.8536L95.9477 44.322L96.8823 43.9731L96.7074 43.5047ZM93.9036 44.5513L92.969 44.9002L93.1439 45.3686L94.0785 45.0198L93.9036 44.5513ZM91.0999 45.598L90.1653 45.9469L90.3402 46.4153L91.2747 46.0664L91.0999 45.598ZM88.2961 46.6447L87.3615 46.9936L87.5364 47.462L88.471 47.1131L88.2961 46.6447ZM85.4924 47.6913L84.5578 48.0402L84.7326 48.5087L85.6672 48.1598L85.4924 47.6913ZM82.6886 48.738L81.754 49.0869L81.9289 49.5553L82.8635 49.2064L82.6886 48.738ZM79.8849 49.7847L78.9503 50.1336L79.1251 50.602L80.0597 50.2531L79.8849 49.7847ZM77.0811 50.8313L76.1465 51.1802L76.3214 51.6487L77.256 51.2998L77.0811 50.8313ZM74.2773 51.878L73.3428 52.2269L73.5176 52.6953L74.4522 52.3464L74.2773 51.878ZM71.4736 52.9247L70.539 53.2736L70.7139 53.742L71.6485 53.3931L71.4736 52.9247ZM68.6698 53.9714L67.7352 54.3202L67.9101 54.7887L68.8447 54.4398L68.6698 53.9714ZM65.8661 55.018L64.9315 55.3669L65.1063 55.8353L66.0409 55.4864L65.8661 55.018ZM63.0623 56.0647L62.1277 56.4136L62.3026 56.882L63.2372 56.5331L63.0623 56.0647ZM60.2586 57.1114L59.324 57.4603L59.4988 57.9287L60.4334 57.5798L60.2586 57.1114ZM57.4548 58.158L56.5202 58.5069L56.6951 58.9753L57.6297 58.6265L57.4548 58.158ZM54.651 59.2047L53.7165 59.5536L53.8913 60.022L54.8259 59.6731L54.651 59.2047ZM51.8473 60.2514L50.9127 60.6003L51.0876 61.0687L52.0222 60.7198L51.8473 60.2514ZM49.0435 61.298L48.1089 61.6469L48.2838 62.1154L49.2184 61.7665L49.0435 61.298ZM46.2398 62.3447L45.3052 62.6936L45.4801 63.162L46.4146 62.8131L46.2398 62.3447ZM43.436 63.3914L42.5014 63.7403L42.6763 64.2087L43.6109 63.8598L43.436 63.3914ZM40.6323 64.438L39.6977 64.7869L39.8725 65.2554L40.8071 64.9065L40.6323 64.438ZM37.8285 65.4847L36.8939 65.8336L37.0688 66.302L38.0034 65.9531L37.8285 65.4847ZM35.0248 66.5314L34.0902 66.8803L34.265 67.3487L35.1996 66.9998L35.0248 66.5314ZM32.221 67.578L31.2864 67.9269L31.4613 68.3954L32.3959 68.0465L32.221 67.578ZM29.4172 68.6247L28.4827 68.9736L28.6575 69.442L29.5921 69.0931L29.4172 68.6247ZM26.6135 69.6714L25.6789 70.0203L25.8538 70.4887L26.7884 70.1398L26.6135 69.6714ZM23.8097 70.7181L22.8751 71.0669L23.05 71.5354L23.9846 71.1865L23.8097 70.7181ZM21.006 71.7647L20.0714 72.1136L20.2462 72.582L21.1808 72.2331L21.006 71.7647ZM18.2022 72.8114L17.2676 73.1603L17.4425 73.6287L18.3771 73.2798L18.2022 72.8114ZM15.3985 73.8581L14.4639 74.207L14.6387 74.6754L15.5733 74.3265L15.3985 73.8581ZM12.5947 74.9047L11.6601 75.2536L11.835 75.722L12.7696 75.3732L12.5947 74.9047ZM9.79095 75.9514L8.85636 76.3003L9.03122 76.7687L9.96581 76.4198L9.79095 75.9514ZM6.98719 76.9981L6.0526 77.347L6.22747 77.8154L7.16206 77.4665L6.98719 76.9981ZM4.18343 78.0447L3.24884 78.3936L3.42371 78.8621L4.3583 78.5132L4.18343 78.0447ZM1.37968 79.0914L0.912569 79.2658L1.08744 79.7342L1.55455 79.5598L1.37968 79.0914ZM0.545134 79.2924C0.430489 79.5436 0.541208 79.8402 0.792434 79.9549L4.88631 81.8231C5.13754 81.9377 5.43412 81.827 5.54877 81.5758C5.6634 81.3245 5.55268 81.0279 5.30147 80.9133L1.66246 79.2527L3.32307 75.6137C3.4377 75.3625 3.32698 75.0659 3.07577 74.9512C2.82454 74.8366 2.52796 74.9473 2.41332 75.1985L0.545134 79.2924ZM211.106 0.531576L210.639 0.70602L210.989 1.64287L211.456 1.46842L211.106 0.531576ZM208.77 1.4038L207.835 1.75269L208.185 2.68954L209.12 2.34065L208.77 1.4038ZM205.966 2.45046L205.032 2.79935L205.381 3.7362L206.316 3.38731L205.966 2.45046ZM203.162 3.49713L202.228 3.84602L202.578 4.78287L203.512 4.43398L203.162 3.49713ZM200.359 4.5438L199.424 4.89269L199.774 5.82954L200.708 5.48065L200.359 4.5438ZM197.555 5.59046L196.62 5.93935L196.97 6.8762L197.905 6.52731L197.555 5.59046ZM194.751 6.63713L193.817 6.98602L194.166 7.92287L195.101 7.57398L194.751 6.63713ZM191.947 7.6838L191.013 8.03269L191.363 8.96953L192.297 8.62065L191.947 7.6838ZM189.144 8.73046L188.209 9.07935L188.559 10.0162L189.493 9.66731L189.144 8.73046ZM186.34 9.77713L185.405 10.126L185.755 11.0629L186.69 10.714L186.34 9.77713ZM183.536 10.8238L182.602 11.1727L182.951 12.1095L183.886 11.7606L183.536 10.8238ZM180.732 11.8705L179.798 12.2194L180.148 13.1562L181.082 12.8073L180.732 11.8705ZM177.929 12.9171L176.994 13.266L177.344 14.2029L178.278 13.854L177.929 12.9171ZM175.125 13.9638L174.19 14.3127L174.54 15.2495L175.475 14.9006L175.125 13.9638ZM172.321 15.0105L171.387 15.3594L171.736 16.2962L172.671 15.9473L172.321 15.0105ZM169.517 16.0571L168.583 16.406L168.933 17.3429L169.867 16.994L169.517 16.0571ZM166.714 17.1038L165.779 17.4527L166.129 18.3895L167.063 18.0406L166.714 17.1038ZM163.91 18.1505L162.975 18.4993L163.325 19.4362L164.26 19.0873L163.91 18.1505ZM161.106 19.1971L160.172 19.546L160.521 20.4829L161.456 20.134L161.106 19.1971ZM158.302 20.2438L157.368 20.5927L157.718 21.5295L158.652 21.1806L158.302 20.2438ZM155.499 21.2905L154.564 21.6393L154.914 22.5762L155.848 22.2273L155.499 21.2905ZM152.695 22.3371L151.76 22.686L152.11 23.6229L153.045 23.274L152.695 22.3371ZM149.891 23.3838L148.957 23.7327L149.306 24.6695L150.241 24.3206L149.891 23.3838ZM147.087 24.4305L146.153 24.7793L146.503 25.7162L147.437 25.3673L147.087 24.4305ZM144.284 25.4771L143.349 25.826L143.699 26.7629L144.633 26.414L144.284 25.4771ZM141.48 26.5238L140.545 26.8727L140.895 27.8095L141.83 27.4606L141.48 26.5238ZM138.676 27.5705L137.742 27.9193L138.091 28.8562L139.026 28.5073L138.676 27.5705ZM135.872 28.6171L134.938 28.966L135.288 29.9029L136.222 29.554L135.872 28.6171ZM133.069 29.6638L132.134 30.0127L132.484 30.9495L133.418 30.6006L133.069 29.6638ZM130.265 30.7105L129.33 31.0593L129.68 31.9962L130.615 31.6473L130.265 30.7105ZM127.461 31.7571L126.527 32.106L126.876 33.0429L127.811 32.694L127.461 31.7571ZM124.657 32.8038L123.723 33.1527L124.073 34.0895L125.007 33.7406L124.657 32.8038ZM121.854 33.8505L120.919 34.1993L121.269 35.1362L122.203 34.7873L121.854 33.8505ZM119.05 34.8971L118.115 35.246L118.465 36.1829L119.4 35.834L119.05 34.8971ZM116.246 35.9438L115.312 36.2927L115.661 37.2295L116.596 36.8806L116.246 35.9438ZM113.442 36.9905L112.508 37.3393L112.858 38.2762L113.792 37.9273L113.442 36.9905ZM110.639 38.0371L109.704 38.386L110.054 39.3229L110.988 38.974L110.639 38.0371ZM107.835 39.0838L106.9 39.4327L107.25 40.3695L108.185 40.0206L107.835 39.0838ZM105.031 40.1305L104.097 40.4793L104.446 41.4162L105.381 41.0673L105.031 40.1305ZM102.227 41.1771L101.293 41.526L101.643 42.4629L102.577 42.114L102.227 41.1771ZM99.4237 42.2238L98.4891 42.5727L98.8389 43.5095L99.7734 43.1606L99.4237 42.2238ZM96.62 43.2705L95.6854 43.6193L96.0351 44.5562L96.9697 44.2073L96.62 43.2705ZM93.8162 44.3171L92.8816 44.666L93.2313 45.6029L94.1659 45.254L93.8162 44.3171ZM91.0124 45.3638L90.0779 45.7127L90.4276 46.6495L91.3622 46.3006L91.0124 45.3638ZM88.2087 46.4105L87.2741 46.7593L87.6238 47.6962L88.5584 47.3473L88.2087 46.4105ZM85.4049 47.4571L84.4703 47.806L84.8201 48.7429L85.7547 48.394L85.4049 47.4571ZM82.6012 48.5038L81.6666 48.8527L82.0163 49.7895L82.9509 49.4406L82.6012 48.5038ZM79.7974 49.5505L78.8628 49.8994L79.2126 50.8362L80.1472 50.4873L79.7974 49.5505ZM76.9937 50.5971L76.0591 50.946L76.4088 51.8829L77.3434 51.534L76.9937 50.5971ZM74.1899 51.6438L73.2553 51.9927L73.6051 52.9295L74.5396 52.5807L74.1899 51.6438ZM71.3862 52.6905L70.4516 53.0394L70.8013 53.9762L71.7359 53.6273L71.3862 52.6905ZM68.5824 53.7371L67.6478 54.086L67.9975 55.0229L68.9321 54.674L68.5824 53.7371ZM65.7786 54.7838L64.844 55.1327L65.1938 56.0695L66.1284 55.7207L65.7786 54.7838ZM62.9749 55.8305L62.0403 56.1794L62.39 57.1162L63.3246 56.7673L62.9749 55.8305ZM60.1711 56.8771L59.2365 57.226L59.5863 58.1629L60.5209 57.814L60.1711 56.8771ZM57.3674 57.9238L56.4328 58.2727L56.7825 59.2096L57.7171 58.8607L57.3674 57.9238ZM54.5636 58.9705L53.629 59.3194L53.9788 60.2562L54.9133 59.9073L54.5636 58.9705ZM51.7599 60.0172L50.8253 60.366L51.175 61.3029L52.1096 60.954L51.7599 60.0172ZM48.9561 61.0638L48.0215 61.4127L48.3712 62.3496L49.3058 62.0007L48.9561 61.0638ZM46.1523 62.1105L45.2178 62.4594L45.5675 63.3962L46.5021 63.0473L46.1523 62.1105ZM43.3486 63.1572L42.414 63.5061L42.7637 64.4429L43.6983 64.094L43.3486 63.1572ZM40.5448 64.2038L39.6102 64.5527L39.96 65.4896L40.8946 65.1407L40.5448 64.2038ZM37.7411 65.2505L36.8065 65.5994L37.1562 66.5362L38.0908 66.1873L37.7411 65.2505ZM34.9373 66.2972L34.0027 66.6461L34.3525 67.5829L35.2871 67.234L34.9373 66.2972ZM32.1336 67.3438L31.199 67.6927L31.5487 68.6296L32.4833 68.2807L32.1336 67.3438ZM29.3298 68.3905L28.3952 68.7394L28.745 69.6762L29.6795 69.3274L29.3298 68.3905ZM26.5261 69.4372L25.5915 69.7861L25.9412 70.7229L26.8758 70.374L26.5261 69.4372ZM23.7223 70.4838L22.7877 70.8327L23.1374 71.7696L24.072 71.4207L23.7223 70.4838ZM20.9185 71.5305L19.9839 71.8794L20.3337 72.8163L21.2683 72.4674L20.9185 71.5305ZM18.1148 72.5772L17.1802 72.9261L17.5299 73.8629L18.4645 73.514L18.1148 72.5772ZM15.311 73.6239L14.3764 73.9727L14.7262 74.9096L15.6608 74.5607L15.311 73.6239ZM12.5073 74.6705L11.5727 75.0194L11.9224 75.9563L12.857 75.6074L12.5073 74.6705ZM9.70351 75.7172L8.76892 76.0661L9.11866 77.0029L10.0532 76.654L9.70351 75.7172ZM6.89976 76.7639L5.96517 77.1127L6.3149 78.0496L7.24949 77.7007L6.89976 76.7639ZM4.096 77.8105L3.16141 78.1594L3.51115 79.0963L4.44574 78.7474L4.096 77.8105ZM1.29225 78.8572L0.825136 79.0316L1.17487 79.9684L1.64198 79.794L1.29225 78.8572Z" fill="black"/>
</svg>
