<svg width="242" height="72" viewBox="0 0 242 72" fill="none" xmlns="http://www.w3.org/2000/svg">
<path d="M241.122 69.2183C241.242 69.151 241.286 68.9987 241.218 68.8781L240.121 66.9137C240.054 66.7931 239.902 66.75 239.781 66.8173C239.661 66.8846 239.617 67.0369 239.685 67.1575L240.66 68.9036L238.914 69.8788C238.793 69.9461 238.75 70.0984 238.817 70.2189C238.885 70.3395 239.037 70.3826 239.157 70.3153L241.122 69.2183ZM1.41378 1.37708C1.54662 1.41472 1.68482 1.33754 1.72246 1.2047C1.7601 1.07185 1.68292 0.933653 1.55008 0.896015L1.41378 1.37708ZM3.47779 1.4422C3.34495 1.40456 3.20675 1.48174 3.16911 1.61458C3.13147 1.74742 3.20865 1.88562 3.34149 1.92326L3.47779 1.4422ZM4.30534 2.19636C4.43819 2.23399 4.57639 2.15682 4.61403 2.02397C4.65166 1.89113 4.57449 1.75293 4.44164 1.71529L4.30534 2.19636ZM6.36936 2.26148C6.23651 2.22384 6.09831 2.30102 6.06067 2.43386C6.02303 2.5667 6.10021 2.7049 6.23305 2.74254L6.36936 2.26148ZM7.19691 3.01563C7.32975 3.05327 7.46795 2.97609 7.50559 2.84325C7.54323 2.71041 7.46605 2.57221 7.33321 2.53457L7.19691 3.01563ZM9.26092 3.08075C9.12808 3.04312 8.98988 3.12029 8.95224 3.25313C8.9146 3.38598 8.99178 3.52418 9.12462 3.56182L9.26092 3.08075ZM10.0885 3.83491C10.2213 3.87255 10.3595 3.79537 10.3972 3.66253C10.4348 3.52969 10.3576 3.39148 10.2248 3.35385L10.0885 3.83491ZM12.1525 3.90003C12.0196 3.86239 11.8814 3.93957 11.8438 4.07241C11.8062 4.20525 11.8833 4.34346 12.0162 4.38109L12.1525 3.90003ZM12.98 4.65419C13.1129 4.69182 13.2511 4.61465 13.2887 4.48181C13.3264 4.34896 13.2492 4.21076 13.1163 4.17312L12.98 4.65419ZM15.0441 4.71931C14.9112 4.68167 14.773 4.75885 14.7354 4.89169C14.6977 5.02453 14.7749 5.16273 14.9078 5.20037L15.0441 4.71931ZM15.8716 5.47346C16.0045 5.5111 16.1427 5.43392 16.1803 5.30108C16.2179 5.16824 16.1408 5.03004 16.0079 4.9924L15.8716 5.47346ZM17.9356 5.53858C17.8028 5.50095 17.6646 5.57812 17.6269 5.71097C17.5893 5.84381 17.6665 5.98201 17.7993 6.01965L17.9356 5.53858ZM18.7632 6.29274C18.896 6.33038 19.0342 6.2532 19.0719 6.12036C19.1095 5.98752 19.0323 5.84932 18.8995 5.81168L18.7632 6.29274ZM20.8272 6.35786C20.6943 6.32022 20.5561 6.3974 20.5185 6.53024C20.4809 6.66309 20.558 6.80129 20.6909 6.83893L20.8272 6.35786ZM21.6547 7.11202C21.7876 7.14966 21.9258 7.07248 21.9634 6.93964C22.0011 6.80679 21.9239 6.66859 21.791 6.63095L21.6547 7.11202ZM23.7188 7.17714C23.5859 7.1395 23.4477 7.21668 23.4101 7.34952C23.3724 7.48236 23.4496 7.62056 23.5825 7.6582L23.7188 7.17714ZM24.5463 7.93129C24.6791 7.96893 24.8174 7.89176 24.855 7.75891C24.8926 7.62607 24.8154 7.48787 24.6826 7.45023L24.5463 7.93129ZM26.6103 7.99642C26.4775 7.95878 26.3393 8.03596 26.3016 8.1688C26.264 8.30164 26.3412 8.43984 26.474 8.47748L26.6103 7.99642ZM27.4379 8.75057C27.5707 8.78821 27.7089 8.71103 27.7466 8.57819C27.7842 8.44535 27.707 8.30715 27.5742 8.26951L27.4379 8.75057ZM29.5019 8.81569C29.369 8.77805 29.2308 8.85523 29.1932 8.98807C29.1556 9.12092 29.2327 9.25912 29.3656 9.29676L29.5019 8.81569ZM30.3294 9.56985C30.4623 9.60749 30.6005 9.53031 30.6381 9.39747C30.6758 9.26463 30.5986 9.12642 30.4657 9.08879L30.3294 9.56985ZM32.3935 9.63497C32.2606 9.59733 32.1224 9.67451 32.0848 9.80735C32.0471 9.94019 32.1243 10.0784 32.2572 10.116L32.3935 9.63497ZM33.221 10.3891C33.3539 10.4268 33.4921 10.3496 33.5297 10.2167C33.5673 10.0839 33.4902 9.9457 33.3573 9.90806L33.221 10.3891ZM35.285 10.4542C35.1522 10.4166 35.014 10.4938 34.9763 10.6266C34.9387 10.7595 35.0159 10.8977 35.1487 10.9353L35.285 10.4542ZM36.1126 11.2084C36.2454 11.246 36.3836 11.1689 36.4213 11.036C36.4589 10.9032 36.3817 10.765 36.2489 10.7273L36.1126 11.2084ZM38.1766 11.2735C38.0437 11.2359 37.9055 11.3131 37.8679 11.4459C37.8303 11.5787 37.9074 11.7169 38.0403 11.7546L38.1766 11.2735ZM39.0041 12.0277C39.137 12.0653 39.2752 11.9881 39.3128 11.8553C39.3505 11.7225 39.2733 11.5843 39.1404 11.5466L39.0041 12.0277ZM41.0682 12.0928C40.9353 12.0552 40.7971 12.1323 40.7595 12.2652C40.7218 12.398 40.799 12.5362 40.9319 12.5739L41.0682 12.0928ZM41.8957 12.847C42.0285 12.8846 42.1667 12.8074 42.2044 12.6746C42.242 12.5417 42.1649 12.4035 42.032 12.3659L41.8957 12.847ZM43.9597 12.9121C43.8269 12.8744 43.6887 12.9516 43.651 13.0845C43.6134 13.2173 43.6906 13.3555 43.8234 13.3931L43.9597 12.9121ZM44.7873 13.6662C44.9201 13.7039 45.0583 13.6267 45.096 13.4939C45.1336 13.361 45.0564 13.2228 44.9236 13.1852L44.7873 13.6662ZM46.8513 13.7314C46.7184 13.6937 46.5802 13.7709 46.5426 13.9037C46.505 14.0366 46.5821 14.1748 46.715 14.2124L46.8513 13.7314ZM47.6788 14.4855C47.8117 14.5232 47.9499 14.446 47.9875 14.3131C48.0252 14.1803 47.948 14.0421 47.8151 14.0044L47.6788 14.4855ZM49.7429 14.5506C49.61 14.513 49.4718 14.5902 49.4342 14.723C49.3965 14.8559 49.4737 14.9941 49.6065 15.0317L49.7429 14.5506ZM50.5704 15.3048C50.7032 15.3424 50.8414 15.2653 50.8791 15.1324C50.9167 14.9996 50.8395 14.8614 50.7067 14.8237L50.5704 15.3048ZM52.6344 15.3699C52.5016 15.3323 52.3634 15.4095 52.3257 15.5423C52.2881 15.6751 52.3653 15.8133 52.4981 15.851L52.6344 15.3699ZM53.462 16.1241C53.5948 16.1617 53.733 16.0845 53.7707 15.9517C53.8083 15.8188 53.7311 15.6806 53.5983 15.643L53.462 16.1241ZM55.526 16.1892C55.3931 16.1516 55.2549 16.2287 55.2173 16.3616C55.1797 16.4944 55.2568 16.6326 55.3897 16.6703L55.526 16.1892ZM56.3535 16.9433C56.4864 16.981 56.6246 16.9038 56.6622 16.771C56.6999 16.6381 56.6227 16.4999 56.4898 16.4623L56.3535 16.9433ZM58.4175 17.0085C58.2847 16.9708 58.1465 17.048 58.1089 17.1808C58.0712 17.3137 58.1484 17.4519 58.2812 17.4895L58.4175 17.0085ZM59.2451 17.7626C59.3779 17.8003 59.5161 17.7231 59.5538 17.5902C59.5914 17.4574 59.5142 17.3192 59.3814 17.2816L59.2451 17.7626ZM61.3091 17.8277C61.1763 17.7901 61.0381 17.8673 61.0004 18.0001C60.9628 18.133 61.04 18.2712 61.1728 18.3088L61.3091 17.8277ZM62.1367 18.5819C62.2695 18.6195 62.4077 18.5424 62.4454 18.4095C62.483 18.2767 62.4058 18.1385 62.273 18.1008L62.1367 18.5819ZM64.2007 18.647C64.0678 18.6094 63.9296 18.6866 63.892 18.8194C63.8544 18.9522 63.9315 19.0904 64.0644 19.1281L64.2007 18.647ZM65.0282 19.4012C65.1611 19.4388 65.2993 19.3616 65.3369 19.2288C65.3746 19.096 65.2974 18.9578 65.1645 18.9201L65.0282 19.4012ZM67.0923 19.4663C66.9594 19.4287 66.8212 19.5058 66.7836 19.6387C66.7459 19.7715 66.8231 19.9097 66.956 19.9474L67.0923 19.4663ZM67.9198 20.2205C68.0526 20.2581 68.1908 20.1809 68.2285 20.0481C68.2661 19.9152 68.1889 19.777 68.0561 19.7394L67.9198 20.2205ZM69.9838 20.2856C69.851 20.2479 69.7128 20.3251 69.6751 20.458C69.6375 20.5908 69.7147 20.729 69.8475 20.7666L69.9838 20.2856ZM70.8114 21.0397C70.9442 21.0774 71.0824 21.0002 71.1201 20.8673C71.1577 20.7345 71.0805 20.5963 70.9477 20.5587L70.8114 21.0397ZM72.8754 21.1049C72.7425 21.0672 72.6043 21.1444 72.5667 21.2772C72.5291 21.4101 72.6062 21.5483 72.7391 21.5859L72.8754 21.1049ZM73.7029 21.859C73.8358 21.8966 73.974 21.8195 74.0116 21.6866C74.0493 21.5538 73.9721 21.4156 73.8392 21.3779L73.7029 21.859ZM75.7669 21.9241C75.6341 21.8865 75.4959 21.9637 75.4583 22.0965C75.4206 22.2294 75.4978 22.3676 75.6306 22.4052L75.7669 21.9241ZM76.5945 22.6783C76.7273 22.7159 76.8655 22.6387 76.9032 22.5059C76.9408 22.3731 76.8636 22.2349 76.7308 22.1972L76.5945 22.6783ZM78.6585 22.7434C78.5257 22.7058 78.3875 22.7829 78.3498 22.9158C78.3122 23.0486 78.3894 23.1868 78.5222 23.2245L78.6585 22.7434ZM79.4861 23.4976C79.6189 23.5352 79.7571 23.458 79.7947 23.3252C79.8324 23.1923 79.7552 23.0541 79.6224 23.0165L79.4861 23.4976ZM81.5501 23.5627C81.4172 23.525 81.279 23.6022 81.2414 23.7351C81.2037 23.8679 81.2809 24.0061 81.4138 24.0437L81.5501 23.5627ZM82.3776 24.3168C82.5105 24.3545 82.6487 24.2773 82.6863 24.1445C82.7239 24.0116 82.6468 23.8734 82.5139 23.8358L82.3776 24.3168ZM84.4416 24.382C84.3088 24.3443 84.1706 24.4215 84.1329 24.5543C84.0953 24.6872 84.1725 24.8254 84.3053 24.863L84.4416 24.382ZM85.2692 25.1361C85.402 25.1738 85.5402 25.0966 85.5779 24.9637C85.6155 24.8309 85.5383 24.6927 85.4055 24.655L85.2692 25.1361ZM87.3332 25.2012C87.2004 25.1636 87.0621 25.2408 87.0245 25.3736C86.9869 25.5065 87.0641 25.6447 87.1969 25.6823L87.3332 25.2012ZM88.1607 25.9554C88.2936 25.993 88.4318 25.9158 88.4694 25.783C88.5071 25.6502 88.4299 25.512 88.297 25.4743L88.1607 25.9554ZM90.2248 26.0205C90.0919 25.9829 89.9537 26.06 89.9161 26.1929C89.8784 26.3257 89.9556 26.4639 90.0885 26.5016L90.2248 26.0205ZM91.0523 26.7747C91.1851 26.8123 91.3233 26.7351 91.361 26.6023C91.3986 26.4694 91.3214 26.3312 91.1886 26.2936L91.0523 26.7747ZM93.1163 26.8398C92.9835 26.8021 92.8453 26.8793 92.8076 27.0122C92.77 27.145 92.8472 27.2832 92.98 27.3208L93.1163 26.8398ZM93.9439 27.5939C94.0767 27.6316 94.2149 27.5544 94.2526 27.4216C94.2902 27.2887 94.213 27.1505 94.0802 27.1129L93.9439 27.5939ZM96.0079 27.6591C95.875 27.6214 95.7368 27.6986 95.6992 27.8314C95.6616 27.9643 95.7387 28.1025 95.8716 28.1401L96.0079 27.6591ZM96.8354 28.4132C96.9683 28.4509 97.1065 28.3737 97.1441 28.2408C97.1818 28.108 97.1046 27.9698 96.9717 27.9322L96.8354 28.4132ZM98.8994 28.4783C98.7666 28.4407 98.6284 28.5179 98.5908 28.6507C98.5531 28.7836 98.6303 28.9218 98.7631 28.9594L98.8994 28.4783ZM99.727 29.2325C99.8598 29.2701 99.998 29.193 100.036 29.0601C100.073 28.9273 99.9961 28.7891 99.8633 28.7514L99.727 29.2325ZM101.791 29.2976C101.658 29.26 101.52 29.3372 101.482 29.47C101.445 29.6028 101.522 29.741 101.655 29.7787L101.791 29.2976ZM102.619 30.0518C102.751 30.0894 102.89 30.0122 102.927 29.8794C102.965 29.7465 102.888 29.6083 102.755 29.5707L102.619 30.0518ZM104.683 30.1169C104.55 30.0793 104.412 30.1564 104.374 30.2893C104.336 30.4221 104.413 30.5603 104.546 30.598L104.683 30.1169ZM105.51 30.871C105.643 30.9087 105.781 30.8315 105.819 30.6987C105.856 30.5658 105.779 30.4276 105.646 30.39L105.51 30.871ZM107.574 30.9362C107.441 30.8985 107.303 30.9757 107.265 31.1085C107.228 31.2414 107.305 31.3796 107.438 31.4172L107.574 30.9362ZM108.402 31.6903C108.535 31.728 108.673 31.6508 108.71 31.5179C108.748 31.3851 108.671 31.2469 108.538 31.2093L108.402 31.6903ZM110.466 31.7554C110.333 31.7178 110.195 31.795 110.157 31.9278C110.119 32.0607 110.197 32.1989 110.329 32.2365L110.466 31.7554ZM111.293 32.5096C111.426 32.5472 111.564 32.4701 111.602 32.3372C111.64 32.2044 111.562 32.0662 111.43 32.0285L111.293 32.5096ZM113.357 32.5747C113.224 32.5371 113.086 32.6143 113.049 32.7471C113.011 32.8799 113.088 33.0181 113.221 33.0558L113.357 32.5747ZM114.185 33.3289C114.318 33.3665 114.456 33.2893 114.493 33.1565C114.531 33.0236 114.454 32.8854 114.321 32.8478L114.185 33.3289ZM116.249 33.394C116.116 33.3564 115.978 33.4335 115.94 33.5664C115.902 33.6992 115.98 33.8374 116.113 33.8751L116.249 33.394ZM117.076 34.1481C117.209 34.1858 117.347 34.1086 117.385 33.9758C117.423 33.8429 117.346 33.7047 117.213 33.6671L117.076 34.1481ZM119.14 34.2133C119.008 34.1756 118.869 34.2528 118.832 34.3856C118.794 34.5185 118.871 34.6567 119.004 34.6943L119.14 34.2133ZM119.968 34.9674C120.101 35.0051 120.239 34.9279 120.277 34.795C120.314 34.6622 120.237 34.524 120.104 34.4864L119.968 34.9674ZM122.032 35.0325C121.899 34.9949 121.761 35.0721 121.723 35.2049C121.686 35.3378 121.763 35.476 121.896 35.5136L122.032 35.0325ZM122.859 35.7867C122.992 35.8243 123.131 35.7472 123.168 35.6143C123.206 35.4815 123.129 35.3433 122.996 35.3056L122.859 35.7867ZM124.923 35.8518C124.791 35.8142 124.652 35.8914 124.615 36.0242C124.577 36.157 124.654 36.2952 124.787 36.3329L124.923 35.8518ZM125.751 36.606C125.884 36.6436 126.022 36.5664 126.06 36.4336C126.097 36.3008 126.02 36.1626 125.887 36.1249L125.751 36.606ZM127.815 36.6711C127.682 36.6335 127.544 36.7106 127.506 36.8435C127.469 36.9763 127.546 37.1145 127.679 37.1522L127.815 36.6711ZM128.643 37.4253C128.775 37.4629 128.914 37.3857 128.951 37.2529C128.989 37.12 128.912 36.9818 128.779 36.9442L128.643 37.4253ZM130.707 37.4904C130.574 37.4527 130.436 37.5299 130.398 37.6628C130.36 37.7956 130.438 37.9338 130.57 37.9714L130.707 37.4904ZM131.534 38.2445C131.667 38.2822 131.805 38.205 131.843 38.0722C131.881 37.9393 131.803 37.8011 131.671 37.7635L131.534 38.2445ZM133.598 38.3097C133.465 38.272 133.327 38.3492 133.29 38.482C133.252 38.6149 133.329 38.7531 133.462 38.7907L133.598 38.3097ZM134.426 39.0638C134.559 39.1015 134.697 39.0243 134.734 38.8914C134.772 38.7586 134.695 38.6204 134.562 38.5828L134.426 39.0638ZM136.49 39.1289C136.357 39.0913 136.219 39.1685 136.181 39.3013C136.143 39.4342 136.221 39.5724 136.354 39.61L136.49 39.1289ZM137.317 39.8831C137.45 39.9207 137.588 39.8436 137.626 39.7107C137.664 39.5779 137.587 39.4397 137.454 39.402L137.317 39.8831ZM139.381 39.9482C139.249 39.9106 139.11 39.9878 139.073 40.1206C139.035 40.2534 139.112 40.3916 139.245 40.4293L139.381 39.9482ZM140.209 40.7024C140.342 40.74 140.48 40.6628 140.518 40.53C140.555 40.3972 140.478 40.259 140.345 40.2213L140.209 40.7024ZM142.273 40.7675C142.14 40.7299 142.002 40.807 141.964 40.9399C141.927 41.0727 142.004 41.2109 142.137 41.2486L142.273 40.7675ZM143.101 41.5217C143.233 41.5593 143.372 41.4821 143.409 41.3493C143.447 41.2164 143.37 41.0782 143.237 41.0406L143.101 41.5217ZM145.165 41.5868C145.032 41.5491 144.893 41.6263 144.856 41.7592C144.818 41.892 144.895 42.0302 145.028 42.0678L145.165 41.5868ZM145.992 42.3409C146.125 42.3786 146.263 42.3014 146.301 42.1686C146.338 42.0357 146.261 41.8975 146.128 41.8599L145.992 42.3409ZM148.056 42.4061C147.923 42.3684 147.785 42.4456 147.747 42.5784C147.71 42.7113 147.787 42.8495 147.92 42.8871L148.056 42.4061ZM148.884 43.1602C149.017 43.1979 149.155 43.1207 149.192 42.9878C149.23 42.855 149.153 42.7168 149.02 42.6792L148.884 43.1602ZM150.948 43.2253C150.815 43.1877 150.677 43.2649 150.639 43.3977C150.601 43.5306 150.679 43.6688 150.811 43.7064L150.948 43.2253ZM151.775 43.9795C151.908 44.0171 152.046 43.94 152.084 43.8071C152.122 43.6743 152.044 43.5361 151.912 43.4984L151.775 43.9795ZM153.839 44.0446C153.706 44.007 153.568 44.0842 153.531 44.217C153.493 44.3498 153.57 44.488 153.703 44.5257L153.839 44.0446ZM154.667 44.7988C154.8 44.8364 154.938 44.7592 154.976 44.6264C155.013 44.4936 154.936 44.3554 154.803 44.3177L154.667 44.7988ZM156.731 44.8639C156.598 44.8263 156.46 44.9034 156.422 45.0363C156.385 45.1691 156.462 45.3073 156.595 45.345L156.731 44.8639ZM157.558 45.6181C157.691 45.6557 157.829 45.5785 157.867 45.4457C157.905 45.3128 157.828 45.1746 157.695 45.137L157.558 45.6181ZM159.622 45.6832C159.49 45.6455 159.351 45.7227 159.314 45.8556C159.276 45.9884 159.353 46.1266 159.486 46.1642L159.622 45.6832ZM160.45 46.4373C160.583 46.475 160.721 46.3978 160.759 46.265C160.796 46.1321 160.719 45.9939 160.586 45.9563L160.45 46.4373ZM162.514 46.5025C162.381 46.4648 162.243 46.542 162.205 46.6748C162.168 46.8077 162.245 46.9459 162.378 46.9835L162.514 46.5025ZM163.342 47.2566C163.474 47.2943 163.613 47.2171 163.65 47.0842C163.688 46.9514 163.611 46.8132 163.478 46.7756L163.342 47.2566ZM165.406 47.3217C165.273 47.2841 165.135 47.3613 165.097 47.4941C165.059 47.627 165.136 47.7652 165.269 47.8028L165.406 47.3217ZM166.233 48.0759C166.366 48.1135 166.504 48.0364 166.542 47.9035C166.579 47.7707 166.502 47.6325 166.369 47.5948L166.233 48.0759ZM168.297 48.141C168.164 48.1034 168.026 48.1806 167.988 48.3134C167.951 48.4462 168.028 48.5845 168.161 48.6221L168.297 48.141ZM169.125 48.8952C169.258 48.9328 169.396 48.8556 169.433 48.7228C169.471 48.59 169.394 48.4518 169.261 48.4141L169.125 48.8952ZM171.189 48.9603C171.056 48.9227 170.918 48.9998 170.88 49.1327C170.842 49.2655 170.92 49.4037 171.052 49.4414L171.189 48.9603ZM172.016 49.7145C172.149 49.7521 172.287 49.6749 172.325 49.5421C172.363 49.4092 172.285 49.271 172.153 49.2334L172.016 49.7145ZM174.08 49.7796C173.947 49.7419 173.809 49.8191 173.772 49.952C173.734 50.0848 173.811 50.223 173.944 50.2606L174.08 49.7796ZM174.908 50.5337C175.041 50.5714 175.179 50.4942 175.217 50.3614C175.254 50.2285 175.177 50.0903 175.044 50.0527L174.908 50.5337ZM176.972 50.5989C176.839 50.5612 176.701 50.6384 176.663 50.7712C176.626 50.9041 176.703 51.0423 176.836 51.0799L176.972 50.5989ZM177.799 51.353C177.932 51.3907 178.07 51.3135 178.108 51.1806C178.146 51.0478 178.069 50.9096 177.936 50.872L177.799 51.353ZM179.863 51.4181C179.731 51.3805 179.592 51.4577 179.555 51.5905C179.517 51.7234 179.594 51.8616 179.727 51.8992L179.863 51.4181ZM180.691 52.1723C180.824 52.2099 180.962 52.1328 181 51.9999C181.037 51.8671 180.96 51.7289 180.827 51.6912L180.691 52.1723ZM182.755 52.2374C182.622 52.1998 182.484 52.277 182.446 52.4098C182.409 52.5426 182.486 52.6808 182.619 52.7185L182.755 52.2374ZM183.583 52.9916C183.715 53.0292 183.854 52.952 183.891 52.8192C183.929 52.6864 183.852 52.5482 183.719 52.5105L183.583 52.9916ZM185.647 53.0567C185.514 53.0191 185.376 53.0962 185.338 53.2291C185.3 53.3619 185.377 53.5001 185.51 53.5378L185.647 53.0567ZM186.474 53.8109C186.607 53.8485 186.745 53.7713 186.783 53.6385C186.82 53.5056 186.743 53.3674 186.61 53.3298L186.474 53.8109ZM188.538 53.876C188.405 53.8383 188.267 53.9155 188.23 54.0484C188.192 54.1812 188.269 54.3194 188.402 54.357L188.538 53.876ZM189.366 54.6301C189.499 54.6678 189.637 54.5906 189.674 54.4578C189.712 54.3249 189.635 54.1867 189.502 54.1491L189.366 54.6301ZM191.43 54.6953C191.297 54.6576 191.159 54.7348 191.121 54.8676C191.083 55.0005 191.161 55.1387 191.293 55.1763L191.43 54.6953ZM192.257 55.4494C192.39 55.4871 192.528 55.4099 192.566 55.277C192.604 55.1442 192.526 55.006 192.394 54.9684L192.257 55.4494ZM194.321 55.5145C194.189 55.4769 194.05 55.5541 194.013 55.6869C193.975 55.8198 194.052 55.958 194.185 55.9956L194.321 55.5145ZM195.149 56.2687C195.282 56.3063 195.42 56.2292 195.458 56.0963C195.495 55.9635 195.418 55.8253 195.285 55.7876L195.149 56.2687ZM197.213 56.3338C197.08 56.2962 196.942 56.3734 196.904 56.5062C196.867 56.639 196.944 56.7773 197.077 56.8149L197.213 56.3338ZM198.04 57.088C198.173 57.1256 198.312 57.0484 198.349 56.9156C198.387 56.7828 198.31 56.6446 198.177 56.6069L198.04 57.088ZM200.105 57.1531C199.972 57.1155 199.833 57.1926 199.796 57.3255C199.758 57.4583 199.835 57.5965 199.968 57.6342L200.105 57.1531ZM200.932 57.9073C201.065 57.9449 201.203 57.8677 201.241 57.7349C201.278 57.602 201.201 57.4638 201.068 57.4262L200.932 57.9073ZM202.996 57.9724C202.863 57.9347 202.725 58.0119 202.687 58.1448C202.65 58.2776 202.727 58.4158 202.86 58.4534L202.996 57.9724ZM203.824 58.7265C203.956 58.7642 204.095 58.687 204.132 58.5542C204.17 58.4213 204.093 58.2831 203.96 58.2455L203.824 58.7265ZM205.888 58.7917C205.755 58.754 205.617 58.8312 205.579 58.964C205.541 59.0969 205.619 59.2351 205.751 59.2727L205.888 58.7917ZM206.715 59.5458C206.848 59.5835 206.986 59.5063 207.024 59.3734C207.062 59.2406 206.984 59.1024 206.852 59.0648L206.715 59.5458ZM208.779 59.6109C208.646 59.5733 208.508 59.6505 208.471 59.7833C208.433 59.9162 208.51 60.0544 208.643 60.092L208.779 59.6109ZM209.607 60.3651C209.74 60.4027 209.878 60.3256 209.915 60.1927C209.953 60.0599 209.876 59.9217 209.743 59.884L209.607 60.3651ZM211.671 60.4302C211.538 60.3926 211.4 60.4698 211.362 60.6026C211.324 60.7354 211.402 60.8736 211.535 60.9113L211.671 60.4302ZM212.498 61.1844C212.631 61.222 212.769 61.1448 212.807 61.012C212.845 60.8792 212.768 60.741 212.635 60.7033L212.498 61.1844ZM214.562 61.2495C214.43 61.2119 214.291 61.289 214.254 61.4219C214.216 61.5547 214.293 61.6929 214.426 61.7306L214.562 61.2495ZM215.39 62.0037C215.523 62.0413 215.661 61.9641 215.699 61.8313C215.736 61.6984 215.659 61.5602 215.526 61.5226L215.39 62.0037ZM217.454 62.0688C217.321 62.0311 217.183 62.1083 217.145 62.2412C217.108 62.374 217.185 62.5122 217.318 62.5499L217.454 62.0688ZM218.282 62.8229C218.414 62.8606 218.553 62.7834 218.59 62.6506C218.628 62.5177 218.551 62.3795 218.418 62.3419L218.282 62.8229ZM220.346 62.8881C220.213 62.8504 220.075 62.9276 220.037 63.0604C219.999 63.1933 220.076 63.3315 220.209 63.3691L220.346 62.8881ZM221.173 63.6422C221.306 63.6799 221.444 63.6027 221.482 63.4698C221.519 63.337 221.442 63.1988 221.309 63.1612L221.173 63.6422ZM223.237 63.7073C223.104 63.6697 222.966 63.7469 222.928 63.8797C222.891 64.0126 222.968 64.1508 223.101 64.1884L223.237 63.7073ZM224.065 64.4615C224.198 64.4991 224.336 64.422 224.373 64.2891C224.411 64.1563 224.334 64.0181 224.201 63.9804L224.065 64.4615ZM226.129 64.5266C225.996 64.489 225.858 64.5662 225.82 64.699C225.782 64.8319 225.86 64.9701 225.992 65.0077L226.129 64.5266ZM226.956 65.2808C227.089 65.3184 227.227 65.2412 227.265 65.1084C227.303 64.9756 227.225 64.8374 227.093 64.7997L226.956 65.2808ZM229.02 65.3459C228.887 65.3083 228.749 65.3854 228.712 65.5183C228.674 65.6511 228.751 65.7893 228.884 65.827L229.02 65.3459ZM229.848 66.1001C229.981 66.1377 230.119 66.0605 230.157 65.9277C230.194 65.7948 230.117 65.6566 229.984 65.619L229.848 66.1001ZM231.912 66.1652C231.779 66.1276 231.641 66.2047 231.603 66.3376C231.566 66.4704 231.643 66.6086 231.776 66.6463L231.912 66.1652ZM232.739 66.9193C232.872 66.957 233.01 66.8798 233.048 66.747C233.086 66.6141 233.009 66.4759 232.876 66.4383L232.739 66.9193ZM234.803 66.9845C234.671 66.9468 234.532 67.024 234.495 67.1568C234.457 67.2897 234.534 67.4279 234.667 67.4655L234.803 66.9845ZM235.631 67.7386C235.764 67.7763 235.902 67.6991 235.94 67.5662C235.977 67.4334 235.9 67.2952 235.767 67.2576L235.631 67.7386ZM237.695 67.8037C237.562 67.7661 237.424 67.8433 237.386 67.9761C237.349 68.109 237.426 68.2472 237.559 68.2848L237.695 67.8037ZM238.523 68.5579C238.655 68.5955 238.794 68.5184 238.831 68.3855C238.869 68.2527 238.792 68.1145 238.659 68.0768L238.523 68.5579ZM240.587 68.623C240.454 68.5854 240.316 68.6626 240.278 68.7954C240.24 68.9283 240.317 69.0665 240.45 69.1041L240.587 68.623ZM0.931849 1.24053L1.41378 1.37708L1.55008 0.896015L1.06815 0.759468L0.931849 1.24053ZM3.34149 1.92326L4.30534 2.19636L4.44164 1.71529L3.47779 1.4422L3.34149 1.92326ZM6.23305 2.74254L7.19691 3.01563L7.33321 2.53457L6.36936 2.26148L6.23305 2.74254ZM9.12462 3.56182L10.0885 3.83491L10.2248 3.35385L9.26092 3.08075L9.12462 3.56182ZM12.0162 4.38109L12.98 4.65419L13.1163 4.17312L12.1525 3.90003L12.0162 4.38109ZM14.9078 5.20037L15.8716 5.47346L16.0079 4.9924L15.0441 4.71931L14.9078 5.20037ZM17.7993 6.01965L18.7632 6.29274L18.8995 5.81168L17.9356 5.53858L17.7993 6.01965ZM20.6909 6.83893L21.6547 7.11202L21.791 6.63095L20.8272 6.35786L20.6909 6.83893ZM23.5825 7.6582L24.5463 7.93129L24.6826 7.45023L23.7188 7.17714L23.5825 7.6582ZM26.474 8.47748L27.4379 8.75057L27.5742 8.26951L26.6103 7.99642L26.474 8.47748ZM29.3656 9.29676L30.3294 9.56985L30.4657 9.08879L29.5019 8.81569L29.3656 9.29676ZM32.2572 10.116L33.221 10.3891L33.3573 9.90806L32.3935 9.63497L32.2572 10.116ZM35.1487 10.9353L36.1126 11.2084L36.2489 10.7273L35.285 10.4542L35.1487 10.9353ZM38.0403 11.7546L39.0041 12.0277L39.1404 11.5466L38.1766 11.2735L38.0403 11.7546ZM40.9319 12.5739L41.8957 12.847L42.032 12.3659L41.0682 12.0928L40.9319 12.5739ZM43.8234 13.3931L44.7873 13.6662L44.9236 13.1852L43.9597 12.9121L43.8234 13.3931ZM46.715 14.2124L47.6788 14.4855L47.8151 14.0044L46.8513 13.7314L46.715 14.2124ZM49.6065 15.0317L50.5704 15.3048L50.7067 14.8237L49.7429 14.5506L49.6065 15.0317ZM52.4981 15.851L53.462 16.1241L53.5983 15.643L52.6344 15.3699L52.4981 15.851ZM55.3897 16.6703L56.3535 16.9433L56.4898 16.4623L55.526 16.1892L55.3897 16.6703ZM58.2812 17.4895L59.2451 17.7626L59.3814 17.2816L58.4175 17.0085L58.2812 17.4895ZM61.1728 18.3088L62.1367 18.5819L62.273 18.1008L61.3091 17.8277L61.1728 18.3088ZM64.0644 19.1281L65.0282 19.4012L65.1645 18.9201L64.2007 18.647L64.0644 19.1281ZM66.956 19.9474L67.9198 20.2205L68.0561 19.7394L67.0923 19.4663L66.956 19.9474ZM69.8475 20.7666L70.8114 21.0397L70.9477 20.5587L69.9838 20.2856L69.8475 20.7666ZM72.7391 21.5859L73.7029 21.859L73.8392 21.3779L72.8754 21.1049L72.7391 21.5859ZM75.6306 22.4052L76.5945 22.6783L76.7308 22.1972L75.7669 21.9241L75.6306 22.4052ZM78.5222 23.2245L79.4861 23.4976L79.6224 23.0165L78.6585 22.7434L78.5222 23.2245ZM81.4138 24.0437L82.3776 24.3168L82.5139 23.8358L81.5501 23.5627L81.4138 24.0437ZM84.3053 24.863L85.2692 25.1361L85.4055 24.655L84.4416 24.382L84.3053 24.863ZM87.1969 25.6823L88.1607 25.9554L88.297 25.4743L87.3332 25.2012L87.1969 25.6823ZM90.0885 26.5016L91.0523 26.7747L91.1886 26.2936L90.2248 26.0205L90.0885 26.5016ZM92.98 27.3208L93.9439 27.5939L94.0802 27.1129L93.1163 26.8398L92.98 27.3208ZM95.8716 28.1401L96.8354 28.4132L96.9717 27.9322L96.0079 27.6591L95.8716 28.1401ZM98.7631 28.9594L99.727 29.2325L99.8633 28.7514L98.8994 28.4783L98.7631 28.9594ZM101.655 29.7787L102.619 30.0518L102.755 29.5707L101.791 29.2976L101.655 29.7787ZM104.546 30.598L105.51 30.871L105.646 30.39L104.683 30.1169L104.546 30.598ZM107.438 31.4172L108.402 31.6903L108.538 31.2093L107.574 30.9362L107.438 31.4172ZM110.329 32.2365L111.293 32.5096L111.43 32.0285L110.466 31.7554L110.329 32.2365ZM113.221 33.0558L114.185 33.3289L114.321 32.8478L113.357 32.5747L113.221 33.0558ZM116.113 33.8751L117.076 34.1481L117.213 33.6671L116.249 33.394L116.113 33.8751ZM119.004 34.6943L119.968 34.9674L120.104 34.4864L119.14 34.2133L119.004 34.6943ZM121.896 35.5136L122.859 35.7867L122.996 35.3056L122.032 35.0325L121.896 35.5136ZM124.787 36.3329L125.751 36.606L125.887 36.1249L124.923 35.8518L124.787 36.3329ZM127.679 37.1522L128.643 37.4253L128.779 36.9442L127.815 36.6711L127.679 37.1522ZM130.57 37.9714L131.534 38.2445L131.671 37.7635L130.707 37.4904L130.57 37.9714ZM133.462 38.7907L134.426 39.0638L134.562 38.5828L133.598 38.3097L133.462 38.7907ZM136.354 39.61L137.317 39.8831L137.454 39.402L136.49 39.1289L136.354 39.61ZM139.245 40.4293L140.209 40.7024L140.345 40.2213L139.381 39.9482L139.245 40.4293ZM142.137 41.2486L143.101 41.5217L143.237 41.0406L142.273 40.7675L142.137 41.2486ZM145.028 42.0678L145.992 42.3409L146.128 41.8599L145.165 41.5868L145.028 42.0678ZM147.92 42.8871L148.884 43.1602L149.02 42.6792L148.056 42.4061L147.92 42.8871ZM150.811 43.7064L151.775 43.9795L151.912 43.4984L150.948 43.2253L150.811 43.7064ZM153.703 44.5257L154.667 44.7988L154.803 44.3177L153.839 44.0446L153.703 44.5257ZM156.595 45.345L157.558 45.6181L157.695 45.137L156.731 44.8639L156.595 45.345ZM159.486 46.1642L160.45 46.4373L160.586 45.9563L159.622 45.6832L159.486 46.1642ZM162.378 46.9835L163.342 47.2566L163.478 46.7756L162.514 46.5025L162.378 46.9835ZM165.269 47.8028L166.233 48.0759L166.369 47.5948L165.406 47.3217L165.269 47.8028ZM168.161 48.6221L169.125 48.8952L169.261 48.4141L168.297 48.141L168.161 48.6221ZM171.052 49.4414L172.016 49.7145L172.153 49.2334L171.189 48.9603L171.052 49.4414ZM173.944 50.2606L174.908 50.5337L175.044 50.0527L174.08 49.7796L173.944 50.2606ZM176.836 51.0799L177.799 51.353L177.936 50.872L176.972 50.5989L176.836 51.0799ZM179.727 51.8992L180.691 52.1723L180.827 51.6912L179.863 51.4181L179.727 51.8992ZM182.619 52.7185L183.583 52.9916L183.719 52.5105L182.755 52.2374L182.619 52.7185ZM185.51 53.5378L186.474 53.8109L186.61 53.3298L185.647 53.0567L185.51 53.5378ZM188.402 54.357L189.366 54.6301L189.502 54.1491L188.538 53.876L188.402 54.357ZM191.293 55.1763L192.257 55.4494L192.394 54.9684L191.43 54.6953L191.293 55.1763ZM194.185 55.9956L195.149 56.2687L195.285 55.7876L194.321 55.5145L194.185 55.9956ZM197.077 56.8149L198.04 57.088L198.177 56.6069L197.213 56.3338L197.077 56.8149ZM199.968 57.6342L200.932 57.9073L201.068 57.4262L200.105 57.1531L199.968 57.6342ZM202.86 58.4534L203.824 58.7265L203.96 58.2455L202.996 57.9724L202.86 58.4534ZM205.751 59.2727L206.715 59.5458L206.852 59.0648L205.888 58.7917L205.751 59.2727ZM208.643 60.092L209.607 60.3651L209.743 59.884L208.779 59.6109L208.643 60.092ZM211.535 60.9113L212.498 61.1844L212.635 60.7033L211.671 60.4302L211.535 60.9113ZM214.426 61.7306L215.39 62.0037L215.526 61.5226L214.562 61.2495L214.426 61.7306ZM217.318 62.5499L218.282 62.8229L218.418 62.3419L217.454 62.0688L217.318 62.5499ZM220.209 63.3691L221.173 63.6422L221.309 63.1612L220.346 62.8881L220.209 63.3691ZM223.101 64.1884L224.065 64.4615L224.201 63.9804L223.237 63.7073L223.101 64.1884ZM225.992 65.0077L226.956 65.2808L227.093 64.7997L226.129 64.5266L225.992 65.0077ZM228.884 65.827L229.848 66.1001L229.984 65.619L229.02 65.3459L228.884 65.827ZM231.776 66.6463L232.739 66.9193L232.876 66.4383L231.912 66.1652L231.776 66.6463ZM234.667 67.4655L235.631 67.7386L235.767 67.2576L234.803 66.9845L234.667 67.4655ZM237.559 68.2848L238.523 68.5579L238.659 68.0768L237.695 67.8037L237.559 68.2848ZM240.45 69.1041L240.932 69.2405L241.068 68.7595L240.587 68.623L240.45 69.1041ZM241.244 69.4365C241.485 69.3019 241.571 68.9973 241.437 68.7562L239.242 64.8273C239.108 64.5862 238.803 64.4999 238.562 64.6346C238.321 64.7692 238.235 65.0738 238.369 65.3149L240.32 68.8072L236.827 70.7575C236.586 70.8922 236.5 71.1967 236.635 71.4378C236.769 71.6789 237.074 71.7652 237.315 71.6306L241.244 69.4365ZM1.34563 1.61761C1.61131 1.69289 1.88771 1.53853 1.96299 1.27285C2.03827 1.00716 1.88391 0.73076 1.61823 0.655483L1.34563 1.61761ZM3.54594 1.20167C3.28026 1.12639 3.00385 1.28075 2.92858 1.54643C2.8533 1.81211 3.00765 2.08852 3.27334 2.16379L3.54594 1.20167ZM4.23719 2.43689C4.50288 2.51216 4.77928 2.35781 4.85456 2.09212C4.92983 1.82644 4.77548 1.55004 4.5098 1.47476L4.23719 2.43689ZM6.43751 2.02094C6.17182 1.94567 5.89542 2.10002 5.82014 2.36571C5.74486 2.63139 5.89922 2.90779 6.1649 2.98307L6.43751 2.02094ZM7.12876 3.25616C7.39444 3.33144 7.67085 3.17709 7.74612 2.9114C7.8214 2.64572 7.66705 2.36931 7.40136 2.29404L7.12876 3.25616ZM9.32907 2.84022C9.06339 2.76494 8.78698 2.9193 8.71171 3.18498C8.63643 3.45067 8.79079 3.72707 9.05647 3.80235L9.32907 2.84022ZM10.0203 4.07544C10.286 4.15072 10.5624 3.99636 10.6377 3.73068C10.713 3.46499 10.5586 3.18859 10.2929 3.11331L10.0203 4.07544ZM12.2206 3.6595C11.955 3.58422 11.6786 3.73858 11.6033 4.00426C11.528 4.26995 11.6824 4.54635 11.948 4.62163L12.2206 3.6595ZM12.9119 4.89472C13.1776 4.97 13.454 4.81564 13.5293 4.54996C13.6045 4.28427 13.4502 4.00787 13.1845 3.93259L12.9119 4.89472ZM15.1122 4.47878C14.8465 4.4035 14.5701 4.55785 14.4948 4.82354C14.4196 5.08922 14.5739 5.36563 14.8396 5.4409L15.1122 4.47878ZM15.8035 5.714C16.0691 5.78927 16.3455 5.63492 16.4208 5.36923C16.4961 5.10355 16.3417 4.82715 16.0761 4.75187L15.8035 5.714ZM18.0038 5.29805C17.7381 5.22278 17.4617 5.37713 17.3864 5.64282C17.3111 5.9085 17.4655 6.1849 17.7312 6.26018L18.0038 5.29805ZM18.695 6.53327C18.9607 6.60855 19.2371 6.45419 19.3124 6.18851C19.3877 5.92283 19.2333 5.64642 18.9676 5.57115L18.695 6.53327ZM20.8953 6.11733C20.6297 6.04205 20.3532 6.19641 20.278 6.46209C20.2027 6.72778 20.3571 7.00418 20.6227 7.07946L20.8953 6.11733ZM21.5866 7.35255C21.8523 7.42783 22.1287 7.27347 22.204 7.00779C22.2792 6.7421 22.1249 6.4657 21.8592 6.39042L21.5866 7.35255ZM23.7869 6.93661C23.5212 6.86133 23.2448 7.01569 23.1695 7.28137C23.0943 7.54705 23.2486 7.82346 23.5143 7.89873L23.7869 6.93661ZM24.4782 8.17183C24.7438 8.2471 25.0202 8.09275 25.0955 7.82706C25.1708 7.56138 25.0164 7.28498 24.7508 7.2097L24.4782 8.17183ZM26.6785 7.75588C26.4128 7.68061 26.1364 7.83496 26.0611 8.10065C25.9858 8.36633 26.1402 8.64273 26.4059 8.71801L26.6785 7.75588ZM27.3697 8.9911C27.6354 9.06638 27.9118 8.91203 27.9871 8.64634C28.0624 8.38066 27.908 8.10425 27.6423 8.02898L27.3697 8.9911ZM29.57 8.57516C29.3044 8.49988 29.0279 8.65424 28.9527 8.91992C28.8774 9.18561 29.0317 9.46201 29.2974 9.53729L29.57 8.57516ZM30.2613 9.81038C30.527 9.88566 30.8034 9.7313 30.8787 9.46562C30.9539 9.19993 30.7996 8.92353 30.5339 8.84825L30.2613 9.81038ZM32.4616 9.39444C32.1959 9.31916 31.9195 9.47352 31.8442 9.7392C31.769 10.0049 31.9233 10.2813 32.189 10.3566L32.4616 9.39444ZM33.1529 10.6297C33.4185 10.7049 33.6949 10.5506 33.7702 10.2849C33.8455 10.0192 33.6911 9.74281 33.4255 9.66753L33.1529 10.6297ZM35.3532 10.2137C35.0875 10.1384 34.8111 10.2928 34.7358 10.5585C34.6605 10.8242 34.8149 11.1006 35.0806 11.1758L35.3532 10.2137ZM36.0444 11.4489C36.3101 11.5242 36.5865 11.3699 36.6618 11.1042C36.7371 10.8385 36.5827 10.5621 36.317 10.4868L36.0444 11.4489ZM38.2447 11.033C37.979 10.9577 37.7026 11.1121 37.6274 11.3778C37.5521 11.6434 37.7064 11.9198 37.9721 11.9951L38.2447 11.033ZM38.936 12.2682C39.2017 12.3435 39.4781 12.1891 39.5534 11.9235C39.6286 11.6578 39.4743 11.3814 39.2086 11.3061L38.936 12.2682ZM41.1363 11.8523C40.8706 11.777 40.5942 11.9313 40.5189 12.197C40.4437 12.4627 40.598 12.7391 40.8637 12.8144L41.1363 11.8523ZM41.8276 13.0875C42.0932 13.1628 42.3696 13.0084 42.4449 12.7427C42.5202 12.477 42.3658 12.2006 42.1002 12.1254L41.8276 13.0875ZM44.0279 12.6715C43.7622 12.5963 43.4858 12.7506 43.4105 13.0163C43.3352 13.282 43.4896 13.5584 43.7553 13.6337L44.0279 12.6715ZM44.7191 13.9068C44.9848 13.982 45.2612 13.8277 45.3365 13.562C45.4118 13.2963 45.2574 13.0199 44.9917 12.9446L44.7191 13.9068ZM46.9194 13.4908C46.6538 13.4155 46.3773 13.5699 46.3021 13.8356C46.2268 14.1013 46.3811 14.3777 46.6468 14.453L46.9194 13.4908ZM47.6107 14.726C47.8764 14.8013 48.1528 14.647 48.2281 14.3813C48.3033 14.1156 48.149 13.8392 47.8833 13.7639L47.6107 14.726ZM49.811 14.3101C49.5453 14.2348 49.2689 14.3892 49.1936 14.6549C49.1184 14.9205 49.2727 15.197 49.5384 15.2722L49.811 14.3101ZM50.5023 15.5453C50.7679 15.6206 51.0443 15.4662 51.1196 15.2006C51.1949 14.9349 51.0405 14.6585 50.7749 14.5832L50.5023 15.5453ZM52.7026 15.1294C52.4369 15.0541 52.1605 15.2085 52.0852 15.4741C52.0099 15.7398 52.1643 16.0162 52.43 16.0915L52.7026 15.1294ZM53.3938 16.3646C53.6595 16.4399 53.9359 16.2855 54.0112 16.0198C54.0865 15.7542 53.9321 15.4777 53.6664 15.4025L53.3938 16.3646ZM55.5941 15.9487C55.3284 15.8734 55.052 16.0277 54.9768 16.2934C54.9015 16.5591 55.0558 16.8355 55.3215 16.9108L55.5941 15.9487ZM56.2854 17.1839C56.5511 17.2592 56.8275 17.1048 56.9028 16.8391C56.978 16.5734 56.8237 16.297 56.558 16.2217L56.2854 17.1839ZM58.4857 16.7679C58.22 16.6927 57.9436 16.847 57.8683 17.1127C57.7931 17.3784 57.9474 17.6548 58.2131 17.7301L58.4857 16.7679ZM59.177 18.0032C59.4426 18.0784 59.719 17.9241 59.7943 17.6584C59.8696 17.3927 59.7152 17.1163 59.4496 17.041L59.177 18.0032ZM61.3773 17.5872C61.1116 17.5119 60.8352 17.6663 60.7599 17.932C60.6846 18.1977 60.839 18.4741 61.1047 18.5493L61.3773 17.5872ZM62.0685 18.8224C62.3342 18.8977 62.6106 18.7434 62.6859 18.4777C62.7612 18.212 62.6068 17.9356 62.3411 17.8603L62.0685 18.8224ZM64.2688 18.4065C64.0031 18.3312 63.7267 18.4856 63.6515 18.7513C63.5762 19.0169 63.7305 19.2933 63.9962 19.3686L64.2688 18.4065ZM64.9601 19.6417C65.2258 19.717 65.5022 19.5626 65.5775 19.2969C65.6527 19.0313 65.4984 18.7549 65.2327 18.6796L64.9601 19.6417ZM67.1604 19.2258C66.8947 19.1505 66.6183 19.3048 66.543 19.5705C66.4678 19.8362 66.6221 20.1126 66.8878 20.1879L67.1604 19.2258ZM67.8517 20.461C68.1173 20.5363 68.3937 20.3819 68.469 20.1162C68.5443 19.8505 68.3899 19.5741 68.1243 19.4989L67.8517 20.461ZM70.052 20.045C69.7863 19.9698 69.5099 20.1241 69.4346 20.3898C69.3593 20.6555 69.5137 20.9319 69.7794 21.0072L70.052 20.045ZM70.7432 21.2803C71.0089 21.3555 71.2853 21.2012 71.3606 20.9355C71.4359 20.6698 71.2815 20.3934 71.0158 20.3181L70.7432 21.2803ZM72.9435 20.8643C72.6778 20.789 72.4014 20.9434 72.3262 21.2091C72.2509 21.4748 72.4052 21.7512 72.6709 21.8264L72.9435 20.8643ZM73.6348 22.0995C73.9005 22.1748 74.1769 22.0205 74.2521 21.7548C74.3274 21.4891 74.1731 21.2127 73.9074 21.1374L73.6348 22.0995ZM75.8351 21.6836C75.5694 21.6083 75.293 21.7627 75.2177 22.0284C75.1425 22.294 75.2968 22.5704 75.5625 22.6457L75.8351 21.6836ZM76.5263 22.9188C76.792 22.9941 77.0684 22.8397 77.1437 22.5741C77.219 22.3084 77.0646 22.032 76.7989 21.9567L76.5263 22.9188ZM78.7267 22.5029C78.461 22.4276 78.1846 22.5819 78.1093 22.8476C78.034 23.1133 78.1884 23.3897 78.4541 23.465L78.7267 22.5029ZM79.4179 23.7381C79.6836 23.8134 79.96 23.659 80.0353 23.3933C80.1105 23.1276 79.9562 22.8512 79.6905 22.776L79.4179 23.7381ZM81.6182 23.3221C81.3525 23.2469 81.0761 23.4012 81.0009 23.6669C80.9256 23.9326 81.0799 24.209 81.3456 24.2843L81.6182 23.3221ZM82.3095 24.5574C82.5752 24.6326 82.8516 24.4783 82.9268 24.2126C83.0021 23.9469 82.8478 23.6705 82.5821 23.5952L82.3095 24.5574ZM84.5098 24.1414C84.2441 24.0661 83.9677 24.2205 83.8924 24.4862C83.8171 24.7519 83.9715 25.0283 84.2372 25.1036L84.5098 24.1414ZM85.201 25.3766C85.4667 25.4519 85.7431 25.2976 85.8184 25.0319C85.8937 24.7662 85.7393 24.4898 85.4736 24.4145L85.201 25.3766ZM87.4013 24.9607C87.1357 24.8854 86.8593 25.0398 86.784 25.3055C86.7087 25.5711 86.8631 25.8475 87.1287 25.9228L87.4013 24.9607ZM88.0926 26.1959C88.3583 26.2712 88.6347 26.1168 88.71 25.8512C88.7852 25.5855 88.6309 25.3091 88.3652 25.2338L88.0926 26.1959ZM90.2929 25.78C90.0272 25.7047 89.7508 25.8591 89.6755 26.1247C89.6003 26.3904 89.7546 26.6668 90.0203 26.7421L90.2929 25.78ZM90.9842 27.0152C91.2498 27.0905 91.5262 26.9361 91.6015 26.6704C91.6768 26.4047 91.5224 26.1283 91.2568 26.0531L90.9842 27.0152ZM93.1845 26.5993C92.9188 26.524 92.6424 26.6783 92.5671 26.944C92.4918 27.2097 92.6462 27.4861 92.9119 27.5614L93.1845 26.5993ZM93.8757 27.8345C94.1414 27.9097 94.4178 27.7554 94.4931 27.4897C94.5684 27.224 94.414 26.9476 94.1483 26.8723L93.8757 27.8345ZM96.076 27.4185C95.8103 27.3433 95.5339 27.4976 95.4587 27.7633C95.3834 28.029 95.5377 28.3054 95.8034 28.3807L96.076 27.4185ZM96.7673 28.6537C97.033 28.729 97.3094 28.5747 97.3846 28.309C97.4599 28.0433 97.3056 27.7669 97.0399 27.6916L96.7673 28.6537ZM98.9676 28.2378C98.7019 28.1625 98.4255 28.3169 98.3502 28.5826C98.275 28.8483 98.4293 29.1247 98.695 29.1999L98.9676 28.2378ZM99.6588 29.473C99.9245 29.5483 100.201 29.3939 100.276 29.1283C100.351 28.8626 100.197 28.5862 99.9314 28.5109L99.6588 29.473ZM101.859 29.0571C101.593 28.9818 101.317 29.1362 101.242 29.4018C101.167 29.6675 101.321 29.9439 101.587 30.0192L101.859 29.0571ZM102.55 30.2923C102.816 30.3676 103.092 30.2132 103.168 29.9475C103.243 29.6819 103.089 29.4054 102.823 29.3302L102.55 30.2923ZM104.751 29.8764C104.485 29.8011 104.209 29.9554 104.133 30.2211C104.058 30.4868 104.212 30.7632 104.478 30.8385L104.751 29.8764ZM105.442 31.1116C105.708 31.1869 105.984 31.0325 106.059 30.7668C106.135 30.5011 105.98 30.2247 105.715 30.1494L105.442 31.1116ZM107.642 30.6956C107.377 30.6204 107.1 30.7747 107.025 31.0404C106.95 31.3061 107.104 31.5825 107.37 31.6578L107.642 30.6956ZM108.334 31.9309C108.599 32.0061 108.876 31.8518 108.951 31.5861C109.026 31.3204 108.872 31.044 108.606 30.9687L108.334 31.9309ZM110.534 31.5149C110.268 31.4396 109.992 31.594 109.916 31.8597C109.841 32.1254 109.996 32.4018 110.261 32.477L110.534 31.5149ZM111.225 32.7501C111.491 32.8254 111.767 32.671 111.842 32.4054C111.918 32.1397 111.763 31.8633 111.498 31.788L111.225 32.7501ZM113.425 32.3342C113.16 32.2589 112.883 32.4133 112.808 32.6789C112.733 32.9446 112.887 33.221 113.153 33.2963L113.425 32.3342ZM114.117 33.5694C114.382 33.6447 114.659 33.4903 114.734 33.2246C114.809 32.959 114.655 32.6826 114.389 32.6073L114.117 33.5694ZM116.317 33.1535C116.051 33.0782 115.775 33.2325 115.7 33.4982C115.624 33.7639 115.779 34.0403 116.044 34.1156L116.317 33.1535ZM117.008 34.3887C117.274 34.464 117.55 34.3096 117.626 34.0439C117.701 33.7782 117.547 33.5018 117.281 33.4266L117.008 34.3887ZM119.209 33.9727C118.943 33.8975 118.666 34.0518 118.591 34.3175C118.516 34.5832 118.67 34.8596 118.936 34.9349L119.209 33.9727ZM119.9 35.208C120.165 35.2832 120.442 35.1289 120.517 34.8632C120.592 34.5975 120.438 34.3211 120.172 34.2458L119.9 35.208ZM122.1 34.792C121.834 34.7167 121.558 34.8711 121.483 35.1368C121.407 35.4025 121.562 35.6789 121.827 35.7541L122.1 34.792ZM122.791 36.0272C123.057 36.1025 123.333 35.9482 123.409 35.6825C123.484 35.4168 123.33 35.1404 123.064 35.0651L122.791 36.0272ZM124.992 35.6113C124.726 35.536 124.45 35.6904 124.374 35.956C124.299 36.2217 124.453 36.4981 124.719 36.5734L124.992 35.6113ZM125.683 36.8465C125.949 36.9218 126.225 36.7674 126.3 36.5017C126.376 36.2361 126.221 35.9597 125.956 35.8844L125.683 36.8465ZM127.883 36.4306C127.618 36.3553 127.341 36.5096 127.266 36.7753C127.191 37.041 127.345 37.3174 127.611 37.3927L127.883 36.4306ZM128.574 37.6658C128.84 37.7411 129.117 37.5867 129.192 37.321C129.267 37.0553 129.113 36.7789 128.847 36.7037L128.574 37.6658ZM130.775 37.2498C130.509 37.1746 130.233 37.3289 130.157 37.5946C130.082 37.8603 130.237 38.1367 130.502 38.212L130.775 37.2498ZM131.466 38.4851C131.732 38.5603 132.008 38.406 132.083 38.1403C132.159 37.8746 132.004 37.5982 131.739 37.5229L131.466 38.4851ZM133.666 38.0691C133.401 37.9939 133.124 38.1482 133.049 38.4139C132.974 38.6796 133.128 38.956 133.394 39.0313L133.666 38.0691ZM134.358 39.3043C134.623 39.3796 134.9 39.2253 134.975 38.9596C135.05 38.6939 134.896 38.4175 134.63 38.3422L134.358 39.3043ZM136.558 38.8884C136.292 38.8131 136.016 38.9675 135.941 39.2332C135.865 39.4989 136.02 39.7753 136.285 39.8505L136.558 38.8884ZM137.249 40.1236C137.515 40.1989 137.791 40.0446 137.867 39.7789C137.942 39.5132 137.788 39.2368 137.522 39.1615L137.249 40.1236ZM139.45 39.7077C139.184 39.6324 138.907 39.7868 138.832 40.0525C138.757 40.3181 138.911 40.5945 139.177 40.6698L139.45 39.7077ZM140.141 40.9429C140.406 41.0182 140.683 40.8638 140.758 40.5981C140.833 40.3325 140.679 40.0561 140.413 39.9808L140.141 40.9429ZM142.341 40.527C142.075 40.4517 141.799 40.606 141.724 40.8717C141.648 41.1374 141.803 41.4138 142.069 41.4891L142.341 40.527ZM143.032 41.7622C143.298 41.8375 143.574 41.6831 143.65 41.4174C143.725 41.1517 143.571 40.8753 143.305 40.8001L143.032 41.7622ZM145.233 41.3462C144.967 41.271 144.691 41.4253 144.615 41.691C144.54 41.9567 144.694 42.2331 144.96 42.3084L145.233 41.3462ZM145.924 42.5815C146.19 42.6567 146.466 42.5024 146.541 42.2367C146.617 41.971 146.462 41.6946 146.197 41.6193L145.924 42.5815ZM148.124 42.1655C147.859 42.0903 147.582 42.2446 147.507 42.5103C147.432 42.776 147.586 43.0524 147.852 43.1277L148.124 42.1655ZM148.816 43.4007C149.081 43.476 149.358 43.3217 149.433 43.056C149.508 42.7903 149.354 42.5139 149.088 42.4386L148.816 43.4007ZM151.016 42.9848C150.75 42.9095 150.474 43.0639 150.398 43.3296C150.323 43.5953 150.478 43.8717 150.743 43.9469L151.016 42.9848ZM151.707 44.22C151.973 44.2953 152.249 44.141 152.324 43.8753C152.4 43.6096 152.245 43.3332 151.98 43.2579L151.707 44.22ZM153.907 43.8041C153.642 43.7288 153.365 43.8832 153.29 44.1489C153.215 44.4145 153.369 44.6909 153.635 44.7662L153.907 43.8041ZM154.599 45.0393C154.864 45.1146 155.141 44.9602 155.216 44.6945C155.291 44.4289 155.137 44.1525 154.871 44.0772L154.599 45.0393ZM156.799 44.6234C156.533 44.5481 156.257 44.7024 156.182 44.9681C156.106 45.2338 156.261 45.5102 156.526 45.5855L156.799 44.6234ZM157.49 45.8586C157.756 45.9339 158.032 45.7795 158.108 45.5138C158.183 45.2481 158.029 44.9717 157.763 44.8965L157.49 45.8586ZM159.691 45.4427C159.425 45.3674 159.148 45.5217 159.073 45.7874C158.998 46.0531 159.152 46.3295 159.418 46.4048L159.691 45.4427ZM160.382 46.6779C160.648 46.7531 160.924 46.5988 160.999 46.3331C161.074 46.0674 160.92 45.791 160.654 45.7157L160.382 46.6779ZM162.582 46.2619C162.316 46.1867 162.04 46.341 161.965 46.6067C161.89 46.8724 162.044 47.1488 162.31 47.2241L162.582 46.2619ZM163.273 47.4972C163.539 47.5724 163.815 47.4181 163.891 47.1524C163.966 46.8867 163.812 46.6103 163.546 46.535L163.273 47.4972ZM165.474 47.0812C165.208 47.0059 164.932 47.1603 164.856 47.426C164.781 47.6917 164.935 47.9681 165.201 48.0433L165.474 47.0812ZM166.165 48.3164C166.431 48.3917 166.707 48.2374 166.782 47.9717C166.858 47.706 166.703 47.4296 166.438 47.3543L166.165 48.3164ZM168.365 47.9005C168.1 47.8252 167.823 47.9796 167.748 48.2453C167.673 48.5109 167.827 48.7873 168.093 48.8626L168.365 47.9005ZM169.057 49.1357C169.322 49.211 169.599 49.0566 169.674 48.7909C169.749 48.5253 169.595 48.2489 169.329 48.1736L169.057 49.1357ZM171.257 48.7198C170.991 48.6445 170.715 48.7988 170.64 49.0645C170.564 49.3302 170.719 49.6066 170.984 49.6819L171.257 48.7198ZM171.948 49.955C172.214 50.0303 172.49 49.8759 172.566 49.6102C172.641 49.3445 172.486 49.0681 172.221 48.9929L171.948 49.955ZM174.148 49.5391C173.883 49.4638 173.606 49.6181 173.531 49.8838C173.456 50.1495 173.61 50.4259 173.876 50.5012L174.148 49.5391ZM174.84 50.7743C175.105 50.8495 175.382 50.6952 175.457 50.4295C175.532 50.1638 175.378 49.8874 175.112 49.8121L174.84 50.7743ZM177.04 50.3583C176.774 50.2831 176.498 50.4374 176.423 50.7031C176.347 50.9688 176.502 51.2452 176.767 51.3205L177.04 50.3583ZM177.731 51.5936C177.997 51.6688 178.273 51.5145 178.349 51.2488C178.424 50.9831 178.27 50.7067 178.004 50.6314L177.731 51.5936ZM179.932 51.1776C179.666 51.1023 179.39 51.2567 179.314 51.5224C179.239 51.7881 179.393 52.0645 179.659 52.1397L179.932 51.1776ZM180.623 52.4128C180.889 52.4881 181.165 52.3338 181.24 52.0681C181.316 51.8024 181.161 51.526 180.895 51.4507L180.623 52.4128ZM182.823 51.9969C182.557 51.9216 182.281 52.076 182.206 52.3417C182.131 52.6073 182.285 52.8837 182.551 52.959L182.823 51.9969ZM183.514 53.2321C183.78 53.3074 184.057 53.153 184.132 52.8874C184.207 52.6217 184.053 52.3453 183.787 52.27L183.514 53.2321ZM185.715 52.8162C185.449 52.7409 185.173 52.8953 185.097 53.1609C185.022 53.4266 185.176 53.703 185.442 53.7783L185.715 52.8162ZM186.406 54.0514C186.672 54.1267 186.948 53.9723 187.023 53.7066C187.099 53.4409 186.944 53.1645 186.679 53.0893L186.406 54.0514ZM188.606 53.6355C188.341 53.5602 188.064 53.7145 187.989 53.9802C187.914 54.2459 188.068 54.5223 188.334 54.5976L188.606 53.6355ZM189.298 54.8707C189.563 54.9459 189.84 54.7916 189.915 54.5259C189.99 54.2602 189.836 53.9838 189.57 53.9085L189.298 54.8707ZM191.498 54.4547C191.232 54.3795 190.956 54.5338 190.881 54.7995C190.805 55.0652 190.96 55.3416 191.225 55.4169L191.498 54.4547ZM192.189 55.69C192.455 55.7652 192.731 55.6109 192.807 55.3452C192.882 55.0795 192.727 54.8031 192.462 54.7278L192.189 55.69ZM194.39 55.274C194.124 55.1987 193.847 55.3531 193.772 55.6188C193.697 55.8845 193.851 56.1609 194.117 56.2361L194.39 55.274ZM195.081 56.5092C195.346 56.5845 195.623 56.4302 195.698 56.1645C195.773 55.8988 195.619 55.6224 195.353 55.5471L195.081 56.5092ZM197.281 56.0933C197.015 56.018 196.739 56.1724 196.664 56.4381C196.588 56.7037 196.743 56.9801 197.008 57.0554L197.281 56.0933ZM197.972 57.3285C198.238 57.4038 198.514 57.2494 198.59 56.9838C198.665 56.7181 198.511 56.4417 198.245 56.3664L197.972 57.3285ZM200.173 56.9126C199.907 56.8373 199.631 56.9917 199.555 57.2573C199.48 57.523 199.634 57.7994 199.9 57.8747L200.173 56.9126ZM200.864 58.1478C201.13 58.2231 201.406 58.0687 201.481 57.803C201.557 57.5373 201.402 57.2609 201.137 57.1857L200.864 58.1478ZM203.064 57.7319C202.799 57.6566 202.522 57.8109 202.447 58.0766C202.372 58.3423 202.526 58.6187 202.792 58.694L203.064 57.7319ZM203.755 58.9671C204.021 59.0424 204.298 58.888 204.373 58.6223C204.448 58.3566 204.294 58.0802 204.028 58.0049L203.755 58.9671ZM205.956 58.5511C205.69 58.4759 205.414 58.6302 205.338 58.8959C205.263 59.1616 205.418 59.438 205.683 59.5133L205.956 58.5511ZM206.647 59.7864C206.913 59.8616 207.189 59.7073 207.264 59.4416C207.34 59.1759 207.185 58.8995 206.92 58.8242L206.647 59.7864ZM208.847 59.3704C208.582 59.2951 208.305 59.4495 208.23 59.7152C208.155 59.9809 208.309 60.2573 208.575 60.3325L208.847 59.3704ZM209.539 60.6056C209.804 60.6809 210.081 60.5266 210.156 60.2609C210.231 59.9952 210.077 59.7188 209.811 59.6435L209.539 60.6056ZM211.739 60.1897C211.473 60.1144 211.197 60.2688 211.122 60.5345C211.046 60.8001 211.201 61.0765 211.466 61.1518L211.739 60.1897ZM212.43 61.4249C212.696 61.5002 212.972 61.3458 213.048 61.0802C213.123 60.8145 212.969 60.5381 212.703 60.4628L212.43 61.4249ZM214.631 61.009C214.365 60.9337 214.088 61.0881 214.013 61.3537C213.938 61.6194 214.092 61.8958 214.358 61.9711L214.631 61.009ZM215.322 62.2442C215.587 62.3195 215.864 62.1651 215.939 61.8994C216.014 61.6337 215.86 61.3573 215.594 61.2821L215.322 62.2442ZM217.522 61.8283C217.256 61.753 216.98 61.9073 216.905 62.173C216.829 62.4387 216.984 62.7151 217.25 62.7904L217.522 61.8283ZM218.213 63.0635C218.479 63.1388 218.755 62.9844 218.831 62.7187C218.906 62.453 218.752 62.1766 218.486 62.1013L218.213 63.0635ZM220.414 62.6475C220.148 62.5723 219.872 62.7266 219.796 62.9923C219.721 63.258 219.875 63.5344 220.141 63.6097L220.414 62.6475ZM221.105 63.8828C221.371 63.958 221.647 63.8037 221.722 63.538C221.798 63.2723 221.643 62.9959 221.378 62.9206L221.105 63.8828ZM223.305 63.4668C223.04 63.3915 222.763 63.5459 222.688 63.8116C222.613 64.0773 222.767 64.3537 223.033 64.4289L223.305 63.4668ZM223.997 64.702C224.262 64.7773 224.539 64.623 224.614 64.3573C224.689 64.0916 224.535 63.8152 224.269 63.7399L223.997 64.702ZM226.197 64.2861C225.931 64.2108 225.655 64.3652 225.579 64.6309C225.504 64.8965 225.659 65.1729 225.924 65.2482L226.197 64.2861ZM226.888 65.5213C227.154 65.5966 227.43 65.4422 227.505 65.1766C227.581 64.9109 227.426 64.6345 227.161 64.5592L226.888 65.5213ZM229.088 65.1054C228.823 65.0301 228.546 65.1845 228.471 65.4501C228.396 65.7158 228.55 65.9922 228.816 66.0675L229.088 65.1054ZM229.78 66.3406C230.045 66.4159 230.322 66.2615 230.397 65.9958C230.472 65.7302 230.318 65.4537 230.052 65.3785L229.78 66.3406ZM231.98 65.9247C231.714 65.8494 231.438 66.0037 231.363 66.2694C231.287 66.5351 231.442 66.8115 231.707 66.8868L231.98 65.9247ZM232.671 67.1599C232.937 67.2352 233.213 67.0808 233.289 66.8151C233.364 66.5494 233.21 66.273 232.944 66.1978L232.671 67.1599ZM234.872 66.7439C234.606 66.6687 234.329 66.823 234.254 67.0887C234.179 67.3544 234.333 67.6308 234.599 67.7061L234.872 66.7439ZM235.563 67.9792C235.829 68.0544 236.105 67.9001 236.18 67.6344C236.255 67.3687 236.101 67.0923 235.835 67.017L235.563 67.9792ZM237.763 67.5632C237.497 67.4879 237.221 67.6423 237.146 67.908C237.071 68.1737 237.225 68.4501 237.491 68.5253L237.763 67.5632ZM238.454 68.7984C238.72 68.8737 238.997 68.7194 239.072 68.4537C239.147 68.188 238.993 67.9116 238.727 67.8363L238.454 68.7984ZM240.655 68.3825C240.389 68.3072 240.113 68.4616 240.037 68.7273C239.962 68.9929 240.116 69.2693 240.382 69.3446L240.655 68.3825ZM0.863699 1.48106L1.34563 1.61761L1.61823 0.655483L1.1363 0.518937L0.863699 1.48106ZM3.27334 2.16379L4.23719 2.43689L4.5098 1.47476L3.54594 1.20167L3.27334 2.16379ZM6.1649 2.98307L7.12876 3.25616L7.40136 2.29404L6.43751 2.02094L6.1649 2.98307ZM9.05647 3.80235L10.0203 4.07544L10.2929 3.11331L9.32907 2.84022L9.05647 3.80235ZM11.948 4.62163L12.9119 4.89472L13.1845 3.93259L12.2206 3.6595L11.948 4.62163ZM14.8396 5.4409L15.8035 5.714L16.0761 4.75187L15.1122 4.47878L14.8396 5.4409ZM17.7312 6.26018L18.695 6.53327L18.9676 5.57115L18.0038 5.29805L17.7312 6.26018ZM20.6227 7.07946L21.5866 7.35255L21.8592 6.39042L20.8953 6.11733L20.6227 7.07946ZM23.5143 7.89873L24.4782 8.17183L24.7508 7.2097L23.7869 6.93661L23.5143 7.89873ZM26.4059 8.71801L27.3697 8.9911L27.6423 8.02898L26.6785 7.75588L26.4059 8.71801ZM29.2974 9.53729L30.2613 9.81038L30.5339 8.84825L29.57 8.57516L29.2974 9.53729ZM32.189 10.3566L33.1529 10.6297L33.4255 9.66753L32.4616 9.39444L32.189 10.3566ZM35.0806 11.1758L36.0444 11.4489L36.317 10.4868L35.3532 10.2137L35.0806 11.1758ZM37.9721 11.9951L38.936 12.2682L39.2086 11.3061L38.2447 11.033L37.9721 11.9951ZM40.8637 12.8144L41.8276 13.0875L42.1002 12.1254L41.1363 11.8523L40.8637 12.8144ZM43.7553 13.6337L44.7191 13.9068L44.9917 12.9446L44.0279 12.6715L43.7553 13.6337ZM46.6468 14.453L47.6107 14.726L47.8833 13.7639L46.9194 13.4908L46.6468 14.453ZM49.5384 15.2722L50.5023 15.5453L50.7749 14.5832L49.811 14.3101L49.5384 15.2722ZM52.43 16.0915L53.3938 16.3646L53.6664 15.4025L52.7026 15.1294L52.43 16.0915ZM55.3215 16.9108L56.2854 17.1839L56.558 16.2217L55.5941 15.9487L55.3215 16.9108ZM58.2131 17.7301L59.177 18.0032L59.4496 17.041L58.4857 16.7679L58.2131 17.7301ZM61.1047 18.5493L62.0685 18.8224L62.3411 17.8603L61.3773 17.5872L61.1047 18.5493ZM63.9962 19.3686L64.9601 19.6417L65.2327 18.6796L64.2688 18.4065L63.9962 19.3686ZM66.8878 20.1879L67.8517 20.461L68.1243 19.4989L67.1604 19.2258L66.8878 20.1879ZM69.7794 21.0072L70.7432 21.2803L71.0158 20.3181L70.052 20.045L69.7794 21.0072ZM72.6709 21.8264L73.6348 22.0995L73.9074 21.1374L72.9435 20.8643L72.6709 21.8264ZM75.5625 22.6457L76.5263 22.9188L76.7989 21.9567L75.8351 21.6836L75.5625 22.6457ZM78.4541 23.465L79.4179 23.7381L79.6905 22.776L78.7267 22.5029L78.4541 23.465ZM81.3456 24.2843L82.3095 24.5574L82.5821 23.5952L81.6182 23.3221L81.3456 24.2843ZM84.2372 25.1036L85.201 25.3766L85.4736 24.4145L84.5098 24.1414L84.2372 25.1036ZM87.1287 25.9228L88.0926 26.1959L88.3652 25.2338L87.4013 24.9607L87.1287 25.9228ZM90.0203 26.7421L90.9842 27.0152L91.2568 26.0531L90.2929 25.78L90.0203 26.7421ZM92.9119 27.5614L93.8757 27.8345L94.1483 26.8723L93.1845 26.5993L92.9119 27.5614ZM95.8034 28.3807L96.7673 28.6537L97.0399 27.6916L96.076 27.4185L95.8034 28.3807ZM98.695 29.1999L99.6588 29.473L99.9314 28.5109L98.9676 28.2378L98.695 29.1999ZM101.587 30.0192L102.55 30.2923L102.823 29.3302L101.859 29.0571L101.587 30.0192ZM104.478 30.8385L105.442 31.1116L105.715 30.1494L104.751 29.8764L104.478 30.8385ZM107.37 31.6578L108.334 31.9309L108.606 30.9687L107.642 30.6956L107.37 31.6578ZM110.261 32.477L111.225 32.7501L111.498 31.788L110.534 31.5149L110.261 32.477ZM113.153 33.2963L114.117 33.5694L114.389 32.6073L113.425 32.3342L113.153 33.2963ZM116.044 34.1156L117.008 34.3887L117.281 33.4266L116.317 33.1535L116.044 34.1156ZM118.936 34.9349L119.9 35.208L120.172 34.2458L119.209 33.9727L118.936 34.9349ZM121.827 35.7541L122.791 36.0272L123.064 35.0651L122.1 34.792L121.827 35.7541ZM124.719 36.5734L125.683 36.8465L125.956 35.8844L124.992 35.6113L124.719 36.5734ZM127.611 37.3927L128.574 37.6658L128.847 36.7037L127.883 36.4306L127.611 37.3927ZM130.502 38.212L131.466 38.4851L131.739 37.5229L130.775 37.2498L130.502 38.212ZM133.394 39.0313L134.358 39.3043L134.63 38.3422L133.666 38.0691L133.394 39.0313ZM136.285 39.8505L137.249 40.1236L137.522 39.1615L136.558 38.8884L136.285 39.8505ZM139.177 40.6698L140.141 40.9429L140.413 39.9808L139.45 39.7077L139.177 40.6698ZM142.069 41.4891L143.032 41.7622L143.305 40.8001L142.341 40.527L142.069 41.4891ZM144.96 42.3084L145.924 42.5815L146.197 41.6193L145.233 41.3462L144.96 42.3084ZM147.852 43.1277L148.816 43.4007L149.088 42.4386L148.124 42.1655L147.852 43.1277ZM150.743 43.9469L151.707 44.22L151.98 43.2579L151.016 42.9848L150.743 43.9469ZM153.635 44.7662L154.599 45.0393L154.871 44.0772L153.907 43.8041L153.635 44.7662ZM156.526 45.5855L157.49 45.8586L157.763 44.8965L156.799 44.6234L156.526 45.5855ZM159.418 46.4048L160.382 46.6779L160.654 45.7157L159.691 45.4427L159.418 46.4048ZM162.31 47.2241L163.273 47.4972L163.546 46.535L162.582 46.2619L162.31 47.2241ZM165.201 48.0433L166.165 48.3164L166.438 47.3543L165.474 47.0812L165.201 48.0433ZM168.093 48.8626L169.057 49.1357L169.329 48.1736L168.365 47.9005L168.093 48.8626ZM170.984 49.6819L171.948 49.955L172.221 48.9929L171.257 48.7198L170.984 49.6819ZM173.876 50.5012L174.84 50.7743L175.112 49.8121L174.148 49.5391L173.876 50.5012ZM176.767 51.3205L177.731 51.5936L178.004 50.6314L177.04 50.3583L176.767 51.3205ZM179.659 52.1397L180.623 52.4128L180.895 51.4507L179.932 51.1776L179.659 52.1397ZM182.551 52.959L183.514 53.2321L183.787 52.27L182.823 51.9969L182.551 52.959ZM185.442 53.7783L186.406 54.0514L186.679 53.0893L185.715 52.8162L185.442 53.7783ZM188.334 54.5976L189.298 54.8707L189.57 53.9085L188.606 53.6355L188.334 54.5976ZM191.225 55.4169L192.189 55.69L192.462 54.7278L191.498 54.4547L191.225 55.4169ZM194.117 56.2361L195.081 56.5092L195.353 55.5471L194.39 55.274L194.117 56.2361ZM197.008 57.0554L197.972 57.3285L198.245 56.3664L197.281 56.0933L197.008 57.0554ZM199.9 57.8747L200.864 58.1478L201.137 57.1857L200.173 56.9126L199.9 57.8747ZM202.792 58.694L203.755 58.9671L204.028 58.0049L203.064 57.7319L202.792 58.694ZM205.683 59.5133L206.647 59.7864L206.92 58.8242L205.956 58.5511L205.683 59.5133ZM208.575 60.3325L209.539 60.6056L209.811 59.6435L208.847 59.3704L208.575 60.3325ZM211.466 61.1518L212.43 61.4249L212.703 60.4628L211.739 60.1897L211.466 61.1518ZM214.358 61.9711L215.322 62.2442L215.594 61.2821L214.631 61.009L214.358 61.9711ZM217.25 62.7904L218.213 63.0635L218.486 62.1013L217.522 61.8283L217.25 62.7904ZM220.141 63.6097L221.105 63.8828L221.378 62.9206L220.414 62.6475L220.141 63.6097ZM223.033 64.4289L223.997 64.702L224.269 63.7399L223.305 63.4668L223.033 64.4289ZM225.924 65.2482L226.888 65.5213L227.161 64.5592L226.197 64.2861L225.924 65.2482ZM228.816 66.0675L229.78 66.3406L230.052 65.3785L229.088 65.1054L228.816 66.0675ZM231.707 66.8868L232.671 67.1599L232.944 66.1978L231.98 65.9247L231.707 66.8868ZM234.599 67.7061L235.563 67.9792L235.835 67.017L234.872 66.7439L234.599 67.7061ZM237.491 68.5253L238.454 68.7984L238.727 67.8363L237.763 67.5632L237.491 68.5253ZM240.382 69.3446L240.864 69.4811L241.136 68.5189L240.655 68.3825L240.382 69.3446Z" fill="#4ACE4F"/>
</svg>
