<svg width="20" height="20" viewBox="0 0 20 20" fill="none" xmlns="http://www.w3.org/2000/svg">
<g id="mdi:eye-off-outline">
<path id="Vector" d="M1.66683 4.39171L2.7335 3.33337L16.6668 17.2667L15.6085 18.3334L13.0418 15.7667C12.0835 16.0834 11.0668 16.25 10.0002 16.25C5.8335 16.25 2.27516 13.6584 0.833496 10C1.4085 8.53337 2.32516 7.24171 3.49183 6.21671L1.66683 4.39171ZM10.0002 7.50004C10.6632 7.50004 11.2991 7.76343 11.7679 8.23227C12.2368 8.70111 12.5002 9.337 12.5002 10C12.5006 10.2838 12.4527 10.5657 12.3585 10.8334L9.16683 7.64171C9.43455 7.54753 9.71636 7.49962 10.0002 7.50004ZM10.0002 3.75004C14.1668 3.75004 17.7252 6.34171 19.1668 10C18.4867 11.7277 17.331 13.2273 15.8335 14.325L14.6502 13.1334C15.8026 12.3362 16.732 11.2576 17.3502 10C16.6765 8.62499 15.6305 7.46652 14.3312 6.65629C13.0319 5.84607 11.5314 5.41661 10.0002 5.41671C9.09183 5.41671 8.20016 5.56671 7.36683 5.83337L6.0835 4.55837C7.2835 4.04171 8.6085 3.75004 10.0002 3.75004ZM2.65016 10C3.32386 11.3751 4.36981 12.5336 5.6691 13.3438C6.9684 14.154 8.46894 14.5835 10.0002 14.5834C10.5752 14.5834 11.1418 14.525 11.6668 14.4084L9.76683 12.5C9.18697 12.4379 8.64585 12.1791 8.23348 11.7667C7.8211 11.3544 7.56232 10.8132 7.50016 10.2334L4.66683 7.39171C3.84183 8.10004 3.15016 8.98337 2.65016 10Z" fill="#324054"/>
</g>
</svg>
