<svg width="11" height="10" viewBox="0 0 11 10" fill="none" xmlns="http://www.w3.org/2000/svg">
<path d="M8.9375 9.375H3.78125C3.59897 9.37484 3.42421 9.30893 3.29532 9.19176C3.16642 9.07458 3.09393 8.91571 3.09375 8.75V6.875H3.78125V8.75H8.9375V1.875H5.84375V1.25H8.9375C9.11978 1.25017 9.29454 1.31607 9.42344 1.43324C9.55233 1.55042 9.62482 1.70929 9.625 1.875V8.75C9.62482 8.91571 9.55233 9.07458 9.42344 9.19176C9.29454 9.30893 9.11978 9.37484 8.9375 9.375Z" fill="#1D0E4A"/>
<path d="M5.84375 3.125H8.25V3.75H5.84375V3.125ZM5.5 4.6875H8.25V5.3125H5.5V4.6875ZM5.15625 6.25H8.25V6.875H5.15625V6.25ZM3.09375 5.9375C2.63805 5.93709 2.20114 5.77233 1.87891 5.4794C1.55668 5.18646 1.37546 4.78927 1.375 4.375V0.9375H2.0625V4.375C2.0625 4.62364 2.17115 4.8621 2.36455 5.03791C2.55794 5.21373 2.82025 5.3125 3.09375 5.3125C3.36725 5.3125 3.62956 5.21373 3.82295 5.03791C4.01635 4.8621 4.125 4.62364 4.125 4.375V1.5625C4.125 1.47962 4.08878 1.40013 4.02432 1.34153C3.95985 1.28292 3.87242 1.25 3.78125 1.25C3.69008 1.25 3.60265 1.28292 3.53818 1.34153C3.47372 1.40013 3.4375 1.47962 3.4375 1.5625V4.6875H2.75V1.5625C2.75 1.31386 2.85865 1.0754 3.05205 0.899587C3.24544 0.723772 3.50775 0.625 3.78125 0.625C4.05475 0.625 4.31706 0.723772 4.51045 0.899587C4.70385 1.0754 4.8125 1.31386 4.8125 1.5625V4.375C4.81205 4.78927 4.63082 5.18646 4.30859 5.4794C3.98636 5.77233 3.54945 5.93709 3.09375 5.9375Z" fill="#1D0E4A"/>
</svg>
