<svg width="169" height="37" viewBox="0 0 169 37" fill="none" xmlns="http://www.w3.org/2000/svg">
<g id="Social Links">
<g id="Group 3148">
<g id="Twitter">
<path id="Oval 10 Copy" opacity="0.25" fill-rule="evenodd" clip-rule="evenodd" d="M145.822 36C157.734 36 167.391 28.165 167.391 18.5C167.391 8.83502 157.734 1 145.822 1C133.909 1 124.252 8.83502 124.252 18.5C124.252 28.165 133.909 36 145.822 36Z" stroke="white" stroke-width="1.5"/>
<path id="ic Twitter" d="M152.872 15.2647C152.772 15.1729 152.61 15.1498 152.478 15.2064C152.396 15.2416 152.241 15.2878 152.057 15.3334C152.289 15.0762 152.475 14.7882 152.558 14.5293C152.593 14.4177 152.541 14.3001 152.428 14.2336C152.315 14.1677 152.164 14.1677 152.051 14.2336C151.872 14.3375 151.011 14.6497 150.466 14.7508C149.235 13.8511 147.803 13.7577 146.314 14.4831C145.103 15.0729 144.84 16.2721 144.891 17.0031C142.12 16.7805 140.398 15.5593 139.429 14.5485C139.361 14.4776 139.251 14.4403 139.149 14.4458C139.041 14.4524 138.943 14.5024 138.888 14.5799C138.43 15.2257 138.302 15.9396 138.522 16.6447C138.642 17.0295 138.851 17.3686 139.094 17.6434C138.978 17.5956 138.865 17.5357 138.759 17.4642C138.661 17.3972 138.525 17.3845 138.41 17.429C138.295 17.4747 138.222 17.5714 138.222 17.6775C138.222 18.8882 139.13 19.6962 139.977 20.1183C139.84 20.1045 139.697 20.0792 139.553 20.0424C139.429 20.0111 139.295 20.0424 139.209 20.1238C139.124 20.2046 139.103 20.32 139.157 20.4184C139.633 21.2972 140.535 21.9017 141.651 22.121C140.677 22.5986 139.372 22.8328 138.177 22.7179C138.023 22.6998 137.875 22.7817 137.826 22.9059C137.778 23.0301 137.841 23.1664 137.978 23.2301C139.79 24.0793 141.429 24.3827 142.845 24.3827C144.905 24.3827 146.496 23.7407 147.464 23.2038C150.074 21.7583 151.701 19.163 151.474 16.841C151.892 16.5832 152.518 16.1072 152.906 15.5955C152.986 15.4922 152.972 15.3559 152.872 15.2647Z" fill="white"/>
</g>
<g id="facebook">
<path id="Oval 10" opacity="0.25" fill-rule="evenodd" clip-rule="evenodd" d="M84.1957 36C96.108 36 105.765 28.165 105.765 18.5C105.765 8.83502 96.108 1 84.1957 1C72.2833 1 62.6265 8.83502 62.6265 18.5C62.6265 28.165 72.2833 36 84.1957 36Z" stroke="white" stroke-width="1.5"/>
<path id="ic Facebook" d="M86.1593 14.0205H88.1417C88.3241 14.0205 88.4721 13.9074 88.4721 13.7679V12.2524C88.4721 12.1129 88.3241 11.9998 88.1417 11.9998H86.1593C84.1558 11.9998 82.525 13.2461 82.525 14.7783V16.5465H80.2122C80.0299 16.5465 79.8818 16.6597 79.8818 16.7991V18.3147C79.8818 18.4541 80.0299 18.5673 80.2122 18.5673H82.525V23.8719C82.525 24.0113 82.673 24.1245 82.8554 24.1245H84.8378C85.0201 24.1245 85.1681 24.0113 85.1681 23.8719V18.5673H87.4809C87.623 18.5673 87.7492 18.4976 87.7948 18.3945L88.4556 16.8789C88.4893 16.8021 88.4721 16.7173 88.41 16.6511C88.3472 16.5854 88.2481 16.5465 88.1417 16.5465H85.1681V14.7783C85.1681 14.3605 85.6129 14.0205 86.1593 14.0205Z" fill="white"/>
</g>
<g id="Linkedin">
<path id="Oval 10 Copy 3" opacity="0.25" fill-rule="evenodd" clip-rule="evenodd" d="M22.5692 36C34.4815 36 44.1384 28.165 44.1384 18.5C44.1384 8.83502 34.4815 1 22.5692 1C10.6569 1 1 8.83502 1 18.5C1 28.165 10.6569 36 22.5692 36Z" stroke="white" stroke-width="1.5"/>
<g id="ic Linkedin">
<path id="Oval" d="M17.619 14.9671C18.6289 14.9671 19.4476 14.3029 19.4476 13.4835C19.4476 12.6642 18.6289 12 17.619 12C16.6092 12 15.7905 12.6642 15.7905 13.4835C15.7905 14.3029 16.6092 14.9671 17.619 14.9671Z" fill="white"/>
<path id="Shape" d="M19.1428 15.958H16.0953C15.9271 15.958 15.7905 16.0688 15.7905 16.2053V23.623C15.7905 23.7595 15.9271 23.8703 16.0953 23.8703H19.1428C19.311 23.8703 19.4476 23.7595 19.4476 23.623V16.2053C19.4476 16.0688 19.311 15.958 19.1428 15.958Z" fill="white"/>
<path id="Shape_2" d="M28.2245 15.5466C26.922 15.1847 25.2928 15.5026 24.3157 16.0728C24.2822 15.9665 24.1627 15.8874 24.0207 15.8874H20.9732C20.805 15.8874 20.6685 15.9981 20.6685 16.1346V23.5524C20.6685 23.6889 20.805 23.7996 20.9732 23.7996H24.0207C24.189 23.7996 24.3255 23.6889 24.3255 23.5524V18.2215C24.818 17.8773 25.4525 17.7675 25.9718 17.9465C26.4752 18.1191 26.7635 18.5404 26.7635 19.1017V23.5524C26.7635 23.6889 26.9 23.7996 27.0683 23.7996H30.1158C30.284 23.7996 30.4205 23.6889 30.4205 23.5524V18.6037C30.3858 16.5718 29.2076 15.8196 28.2245 15.5466Z" fill="white"/>
</g>
</g>
</g>
</g>
</svg>
